if (_typeface_js && _typeface_js.loadFace) _typeface_js.loadFace({"glyphs":{"¦":{"x_min":278,"x_max":418,"ha":694,"o":"m 278 277 l 418 277 l 418 -237 l 278 -237 l 278 277 m 278 971 l 418 971 l 418 457 l 278 457 l 278 971 "},"Ž":{"x_min":-35,"x_max":841,"ha":829,"o":"m -35 0 l -8 151 l 554 832 l 95 832 l 124 999 l 841 999 l 813 845 l 250 171 l 731 171 l 700 0 l -35 0 m 356 1339 l 443 1339 l 532 1197 l 688 1339 l 784 1339 l 603 1088 l 443 1088 l 356 1339 "},"Á":{"x_min":-98,"x_max":824,"ha":900,"o":"m 308 368 l 571 368 l 517 790 l 308 368 m -98 0 l 424 999 l 665 999 l 824 0 l 616 0 l 593 194 l 222 194 l 123 0 l -98 0 m 793 1339 l 531 1088 l 436 1088 l 596 1339 l 793 1339 "},"Î":{"x_min":18,"x_max":531,"ha":429,"o":"m 18 0 l 201 999 l 411 999 l 229 0 l 18 0 m 531 1088 l 443 1088 l 354 1229 l 199 1088 l 103 1088 l 284 1339 l 443 1339 l 531 1088 "},"e":{"x_min":26,"x_max":733,"ha":807,"o":"m 236 443 l 536 443 q 537 455 536 447 q 538 468 538 464 q 505 571 538 536 q 408 607 472 607 q 296 564 341 607 q 236 443 252 521 m 490 212 l 702 212 q 577 40 672 102 q 346 -22 482 -22 q 110 70 194 -22 q 26 327 26 162 q 132 638 26 517 q 408 760 239 760 q 646 673 560 760 q 733 434 733 586 q 730 387 733 413 q 720 306 728 360 l 219 306 l 219 301 q 255 180 219 222 q 357 138 291 138 q 435 156 403 138 q 490 212 468 174 "},"»":{"x_min":-20,"x_max":568,"ha":619,"o":"m 92 646 l 280 432 l 251 287 l -20 93 l 15 261 l 175 373 l 63 501 l 92 646 m 378 646 l 568 432 l 537 287 l 268 93 l 303 261 l 463 373 l 349 501 l 378 646 "},"∆":{"x_min":0,"x_max":968,"ha":968,"o":"m 483 752 l 262 174 l 705 174 l 483 752 m 381 999 l 586 999 l 968 0 l 0 0 l 381 999 "},"ò":{"x_min":22,"x_max":786,"ha":856,"o":"m 435 603 q 282 517 345 603 q 219 314 219 432 q 260 185 219 231 q 374 139 301 139 q 527 221 465 139 q 589 425 589 303 q 548 555 589 508 q 435 603 508 603 m 22 318 q 141 636 22 511 q 446 762 260 762 q 696 671 606 762 q 786 421 786 581 q 668 103 786 228 q 366 -22 550 -22 q 114 70 207 -22 q 22 318 22 162 m 499 827 l 302 1078 l 473 1078 l 587 827 l 499 827 "},"^":{"x_min":282,"x_max":1105,"ha":1389,"o":"m 608 990 l 778 990 l 1105 610 l 945 610 l 694 861 l 441 610 l 282 610 l 608 990 "},"«":{"x_min":12,"x_max":602,"ha":619,"o":"m 490 93 l 302 307 l 330 451 l 602 646 l 566 478 l 405 365 l 519 237 l 490 93 m 201 93 l 12 307 l 42 451 l 312 646 l 278 478 l 117 365 l 230 237 l 201 93 "},"∙":{"x_min":92,"x_max":303,"ha":395,"o":"m 92 476 q 122 551 92 520 q 197 582 153 582 q 272 551 241 582 q 303 476 303 520 q 272 401 303 432 q 197 371 241 371 q 122 401 153 371 q 92 476 92 431 "},"í":{"x_min":3,"x_max":476,"ha":370,"o":"m 3 0 l 132 741 l 326 741 l 197 0 l 3 0 m 476 1078 l 214 827 l 119 827 l 279 1078 l 476 1078 "},"ˆ":{"x_min":184,"x_max":612,"ha":694,"o":"m 612 827 l 524 827 l 435 968 l 280 827 l 184 827 l 365 1078 l 524 1078 l 612 827 "},"µ":{"x_min":-43,"x_max":803,"ha":847,"o":"m 139 741 l 335 741 l 283 445 q 267 342 273 391 q 262 263 262 294 q 290 169 262 200 q 377 139 319 139 q 483 194 445 139 q 545 392 520 250 l 607 741 l 803 741 l 672 0 l 490 0 l 502 79 q 439 2 474 26 q 356 -22 404 -22 q 276 -2 311 -22 q 212 59 240 17 l 151 -297 l -43 -297 l 139 741 "},"č":{"x_min":29,"x_max":732,"ha":798,"o":"m 520 265 l 716 265 q 599 53 691 128 q 364 -21 508 -21 q 116 70 203 -21 q 29 330 29 162 q 135 641 29 522 q 416 761 242 761 q 645 689 564 761 q 732 482 727 617 l 537 482 q 504 570 535 539 q 413 602 473 602 q 277 521 329 602 q 225 314 225 441 q 263 186 225 231 q 371 142 301 142 q 465 174 426 142 q 520 265 504 206 m 272 1078 l 359 1078 l 448 936 l 604 1078 l 700 1078 l 519 827 l 359 827 l 272 1078 "},"’":{"x_min":109,"x_max":373,"ha":361,"o":"m 373 999 l 341 829 q 261 679 323 735 q 109 621 198 623 l 119 686 q 206 726 174 694 q 249 814 238 758 l 144 814 l 179 999 l 373 999 "},"-":{"x_min":17,"x_max":386,"ha":449,"o":"m 17 279 l 50 458 l 386 458 l 352 279 l 17 279 "},"Q":{"x_min":56,"x_max":1034,"ha":1091,"o":"m 493 271 l 612 373 l 714 249 q 793 405 765 317 q 822 583 822 493 q 759 778 822 710 q 580 846 697 846 q 354 725 441 846 q 267 416 267 605 q 330 219 267 288 q 512 151 393 151 q 546 153 529 151 q 583 162 563 156 l 493 271 m 820 -129 l 705 13 q 597 -17 653 -6 q 482 -28 542 -28 q 169 91 283 -28 q 56 417 56 210 q 102 665 56 545 q 232 874 148 784 q 394 987 302 949 q 595 1026 487 1026 q 915 908 797 1026 q 1034 591 1034 790 q 983 317 1034 442 q 836 99 933 192 l 940 -28 l 820 -129 "},"M":{"x_min":16,"x_max":1202,"ha":1217,"o":"m 16 0 l 190 999 l 496 999 l 571 279 l 901 999 l 1202 999 l 1020 0 l 825 0 l 980 811 l 616 0 l 425 0 l 347 794 l 209 0 l 16 0 "},"œ":{"x_min":25,"x_max":1265,"ha":1340,"o":"m 746 442 l 1072 442 q 1073 453 1073 446 q 1074 471 1074 459 q 1034 577 1074 539 q 922 615 994 615 q 809 572 853 615 q 746 442 766 529 m 420 606 q 280 523 336 606 q 224 314 224 441 q 261 180 224 227 q 366 133 298 133 q 507 219 452 133 q 563 437 563 305 q 525 562 563 518 q 420 606 488 606 m 610 92 q 488 5 550 33 q 353 -22 426 -22 q 112 71 200 -22 q 25 326 25 165 q 136 640 25 515 q 418 765 247 765 q 568 734 508 765 q 663 641 628 704 q 783 734 716 703 q 935 765 851 765 q 1176 672 1087 765 q 1265 422 1265 580 q 1255 325 1265 393 q 1253 309 1254 313 l 732 309 q 731 287 731 297 q 731 268 731 277 q 772 166 731 205 q 880 128 813 128 q 971 149 931 128 q 1036 213 1010 171 l 1237 213 q 1096 35 1191 96 q 866 -26 1001 -26 q 718 1 778 -26 q 610 92 658 29 "},"{":{"x_min":107,"x_max":599,"ha":694,"o":"m 599 1002 l 599 860 q 581 860 592 860 q 567 861 571 861 q 474 835 498 861 q 450 725 450 809 l 450 562 q 419 420 450 462 q 309 359 389 377 q 419 300 389 341 q 450 158 450 258 l 450 -4 q 473 -113 450 -87 q 567 -139 497 -139 q 581 -138 571 -139 q 599 -138 592 -138 l 599 -280 q 572 -280 589 -280 q 547 -281 555 -281 q 434 -273 479 -281 q 356 -248 388 -265 q 301 -186 317 -225 q 286 -50 286 -147 l 286 119 q 251 251 286 212 q 134 290 216 290 q 121 289 130 290 q 107 289 111 289 l 107 431 q 121 430 111 431 q 134 429 130 429 q 251 468 216 429 q 286 601 286 508 l 286 771 q 301 907 286 868 q 356 970 317 947 q 434 995 388 987 q 547 1003 479 1003 q 572 1002 555 1003 q 599 1002 589 1002 "},"¼":{"x_min":81,"x_max":1195,"ha":1225,"o":"m 829 204 l 1008 204 l 1057 442 l 829 204 m 967 0 l 989 119 l 724 119 l 740 223 l 1049 536 l 1195 536 l 1128 204 l 1192 204 l 1177 119 l 1111 119 l 1088 0 l 967 0 m 261 -28 l 850 985 l 962 985 l 370 -28 l 261 -28 m 158 422 l 234 818 q 157 803 196 808 q 81 799 118 799 l 95 874 q 216 902 171 881 q 286 965 261 924 l 388 965 l 282 422 l 158 422 "},"#":{"x_min":31,"x_max":1038,"ha":1068,"o":"m 481 575 l 421 409 l 591 409 l 650 575 l 481 575 m 481 993 l 631 993 l 532 711 l 696 711 l 796 993 l 946 993 l 846 711 l 1038 711 l 987 575 l 797 575 l 740 411 l 937 411 l 889 275 l 692 275 l 591 -7 l 441 -7 l 542 275 l 376 275 l 275 -7 l 126 -7 l 225 275 l 31 275 l 82 411 l 273 411 l 332 575 l 129 575 l 179 711 l 380 711 l 481 993 "},"Ê":{"x_min":16,"x_max":852,"ha":848,"o":"m 16 0 l 195 999 l 852 999 l 821 822 l 371 822 l 329 610 l 752 610 l 717 432 l 300 432 l 256 172 l 735 172 l 703 0 l 16 0 m 741 1088 l 653 1088 l 564 1229 l 409 1088 l 313 1088 l 494 1339 l 653 1339 l 741 1088 "},")":{"x_min":-68,"x_max":417,"ha":514,"o":"m 277 997 q 382 726 348 854 q 417 472 417 597 q 342 119 417 286 q 90 -257 268 -48 l -68 -257 q 153 152 82 -46 q 224 563 224 350 q 202 786 224 680 q 138 997 181 892 l 277 997 "},"Å":{"x_min":-98,"x_max":824,"ha":900,"o":"m 472 1169 q 495 1115 472 1138 q 551 1093 519 1093 q 609 1115 585 1093 q 633 1169 633 1137 q 609 1226 633 1204 q 551 1249 586 1249 q 495 1225 518 1249 q 472 1169 472 1202 m 385 1171 q 433 1289 385 1240 q 551 1338 482 1338 q 670 1288 620 1338 q 720 1171 720 1239 q 670 1053 720 1102 q 551 1004 620 1004 q 433 1052 482 1004 q 385 1171 385 1101 m 308 368 l 572 368 l 515 790 l 308 368 m -98 0 l 411 973 l 672 973 l 824 0 l 619 0 l 594 194 l 222 194 l 123 0 l -98 0 "},"¸":{"x_min":60,"x_max":439,"ha":694,"o":"m 60 -291 l 91 -209 q 178 -234 140 -226 q 254 -242 217 -242 q 302 -226 284 -242 q 320 -186 320 -211 q 295 -149 320 -159 q 186 -138 270 -139 l 233 0 l 301 0 l 281 -61 l 286 -61 q 399 -90 360 -61 q 439 -176 439 -120 q 391 -288 439 -248 q 257 -329 344 -329 q 170 -319 220 -329 q 60 -291 119 -310 "},"a":{"x_min":0,"x_max":686,"ha":772,"o":"m 462 355 q 341 326 418 341 q 195 213 195 299 q 218 160 195 180 q 280 140 241 140 q 389 176 343 140 q 446 270 436 213 l 462 355 m 426 73 q 328 4 377 25 q 221 -17 280 -17 q 59 41 119 -17 q 0 196 0 99 q 71 383 0 320 q 313 464 143 445 q 357 469 329 466 q 490 546 490 481 q 459 594 490 576 q 378 613 429 613 q 300 594 328 613 q 266 535 273 575 l 77 535 q 171 705 95 650 q 388 760 248 760 q 607 704 528 760 q 686 551 686 648 q 684 531 686 541 q 681 509 683 520 l 613 116 q 610 90 611 102 q 609 70 609 79 q 613 40 609 52 q 629 18 618 28 l 629 0 l 426 0 l 426 73 "},"=":{"x_min":172,"x_max":984,"ha":1157,"o":"m 172 336 l 984 336 l 984 201 l 172 201 l 172 336 m 172 628 l 984 628 l 984 493 l 172 493 l 172 628 "},"˚":{"x_min":262,"x_max":621,"ha":694,"o":"m 354 992 q 379 931 354 956 q 442 907 405 907 q 504 931 479 907 q 529 992 529 956 q 504 1055 529 1030 q 442 1081 479 1081 q 379 1055 405 1081 q 354 992 354 1030 m 262 994 q 314 1122 262 1069 q 440 1175 366 1175 q 568 1122 515 1175 q 621 994 621 1069 q 568 866 621 918 q 440 814 515 814 q 314 866 366 814 q 262 994 262 918 "},"ú":{"x_min":35,"x_max":792,"ha":835,"o":"m 792 741 l 660 0 l 482 0 l 502 117 q 382 12 441 44 q 251 -20 323 -20 q 93 34 152 -20 q 35 181 35 89 q 37 226 35 204 q 43 269 39 248 l 126 741 l 324 741 l 241 275 q 237 250 238 262 q 236 227 236 238 q 260 164 236 186 q 329 143 284 143 q 456 196 403 143 q 526 345 509 250 l 599 741 l 792 741 m 710 1078 l 448 827 l 353 827 l 513 1078 l 710 1078 "},"¯":{"x_min":228,"x_max":636,"ha":694,"o":"m 228 897 l 245 1003 l 636 1003 l 616 897 l 228 897 "},"Z":{"x_min":-35,"x_max":841,"ha":829,"o":"m -35 0 l -8 151 l 554 832 l 95 832 l 124 999 l 841 999 l 813 845 l 250 171 l 731 171 l 700 0 l -35 0 "},"u":{"x_min":35,"x_max":792,"ha":835,"o":"m 792 741 l 660 0 l 482 0 l 502 117 q 382 12 441 44 q 251 -20 323 -20 q 93 34 152 -20 q 35 181 35 89 q 37 226 35 204 q 43 269 39 248 l 126 741 l 324 741 l 241 275 q 237 250 238 262 q 236 227 236 238 q 260 164 236 186 q 329 143 284 143 q 456 196 403 143 q 526 345 509 250 l 599 741 l 792 741 "},"k":{"x_min":3,"x_max":760,"ha":730,"o":"m 3 0 l 179 999 l 374 999 l 279 472 l 539 741 l 760 741 l 481 451 l 646 0 l 449 0 l 338 316 l 233 209 l 193 0 l 3 0 "},"Ù":{"x_min":78,"x_max":1003,"ha":1015,"o":"m 194 999 l 407 999 l 294 373 q 289 338 291 354 q 288 310 288 322 q 331 195 288 234 q 460 157 375 157 q 606 210 552 157 q 681 378 659 264 l 794 999 l 1003 999 l 890 363 q 744 71 855 168 q 442 -26 632 -26 q 177 62 276 -26 q 78 298 78 150 q 81 357 78 324 q 91 429 84 390 l 194 999 m 636 1088 l 439 1339 l 610 1339 l 724 1088 l 636 1088 "},"¢":{"x_min":40,"x_max":743,"ha":787,"o":"m 434 602 l 422 602 q 289 520 342 602 q 236 314 236 439 q 253 220 236 261 q 299 163 270 180 l 434 602 m 197 -158 l 242 -2 q 93 116 147 30 q 40 326 40 203 q 145 639 40 518 q 413 761 250 761 q 444 760 429 761 q 475 759 459 760 l 515 889 l 592 889 l 551 746 q 691 648 641 717 q 743 482 741 579 l 547 482 q 534 542 547 518 q 495 584 522 567 l 359 142 q 371 141 365 141 q 383 141 376 141 q 476 172 439 141 q 530 265 513 203 l 726 265 q 608 53 702 129 q 369 -22 514 -22 q 344 -21 357 -22 q 317 -18 331 -20 l 276 -158 l 197 -158 "},"Ş":{"x_min":22,"x_max":820,"ha":865,"o":"m 22 316 l 225 316 l 225 306 q 271 191 225 231 q 404 151 317 151 q 524 184 482 151 q 566 281 566 218 q 539 346 566 319 q 410 418 513 373 q 161 566 215 504 q 108 722 108 627 q 201 942 108 860 q 453 1025 295 1025 q 723 945 626 1025 q 820 725 820 866 l 820 712 l 623 712 q 578 814 621 778 q 455 851 535 851 q 351 822 388 851 q 315 744 315 794 q 455 614 315 673 q 493 598 479 604 q 709 463 650 531 q 769 293 769 395 q 672 58 769 141 q 391 -31 576 -23 l 381 -61 l 387 -61 q 500 -90 461 -61 q 540 -176 540 -120 q 492 -288 540 -248 q 359 -329 445 -329 q 272 -319 322 -329 q 162 -291 222 -310 l 194 -209 q 279 -234 240 -226 q 356 -242 318 -242 q 403 -227 385 -242 q 421 -189 421 -212 q 396 -149 421 -160 q 287 -138 372 -139 l 323 -29 q 101 79 181 -5 q 22 293 22 164 l 22 316 "},"é":{"x_min":26,"x_max":733,"ha":807,"o":"m 236 443 l 536 443 q 537 455 536 447 q 538 468 538 464 q 505 571 538 536 q 408 607 472 607 q 296 564 341 607 q 236 443 252 521 m 490 212 l 702 212 q 577 40 672 102 q 346 -22 482 -22 q 110 70 194 -22 q 26 327 26 162 q 132 638 26 517 q 408 760 239 760 q 646 673 560 760 q 733 434 733 586 q 730 387 733 413 q 720 306 728 360 l 219 306 l 219 301 q 255 180 219 222 q 357 138 291 138 q 435 156 403 138 q 490 212 468 174 m 676 1078 l 414 827 l 319 827 l 479 1078 l 676 1078 "},"B":{"x_min":16,"x_max":923,"ha":971,"o":"m 253 172 l 484 172 q 625 209 579 172 q 672 323 672 246 q 632 411 672 380 q 521 443 593 443 l 301 443 l 253 172 m 331 606 l 555 606 q 678 636 638 606 q 718 729 718 666 q 685 803 718 778 q 588 828 652 828 l 370 828 l 331 606 m 16 0 l 195 999 l 592 999 q 838 933 754 999 q 923 742 923 867 q 882 595 923 655 q 763 505 841 534 q 851 429 822 477 q 880 312 880 381 q 783 80 880 160 q 502 0 686 0 l 16 0 "},"…":{"x_min":39,"x_max":1214,"ha":1389,"o":"m 39 0 l 76 203 l 288 203 l 251 0 l 39 0 m 501 0 l 538 203 l 750 203 l 713 0 l 501 0 m 965 0 l 1002 203 l 1214 203 l 1177 0 l 965 0 "},"H":{"x_min":16,"x_max":996,"ha":1011,"o":"m 16 0 l 193 999 l 403 999 l 335 615 l 721 615 l 790 999 l 996 999 l 818 0 l 611 0 l 688 439 l 301 439 l 224 0 l 16 0 "},"î":{"x_min":3,"x_max":449,"ha":370,"o":"m 3 0 l 132 741 l 326 741 l 197 0 l 3 0 m 449 827 l 361 827 l 272 968 l 117 827 l 21 827 l 202 1078 l 361 1078 l 449 827 "},"−":{"x_min":172,"x_max":984,"ha":1157,"o":"m 172 484 l 984 484 l 984 346 l 172 346 l 172 484 "},"≠":{"x_min":172,"x_max":984,"ha":1157,"o":"m 811 836 l 912 756 l 807 626 l 984 626 l 984 496 l 720 496 l 590 334 l 984 334 l 984 203 l 504 203 l 338 -6 l 238 74 l 342 203 l 172 203 l 172 334 l 427 334 l 556 496 l 172 496 l 172 626 l 643 626 l 811 836 "},"¥":{"x_min":-4,"x_max":863,"ha":844,"o":"m 254 0 l 319 364 l 314 375 l -4 375 l 9 450 l 283 450 l 249 537 l 25 537 l 38 612 l 218 612 l 83 946 l 282 946 l 434 543 l 657 946 l 863 946 l 662 612 l 848 612 l 835 537 l 616 537 l 562 450 l 819 450 l 807 375 l 519 375 l 510 358 l 453 0 l 254 0 "},"U":{"x_min":78,"x_max":1003,"ha":1015,"o":"m 194 999 l 407 999 l 294 373 q 289 338 291 354 q 288 310 288 322 q 331 195 288 234 q 460 157 375 157 q 606 210 552 157 q 681 378 659 264 l 794 999 l 1003 999 l 890 363 q 744 71 855 168 q 442 -26 632 -26 q 177 62 276 -26 q 78 298 78 150 q 81 357 78 324 q 91 429 84 390 l 194 999 "},"Ñ":{"x_min":14,"x_max":999,"ha":1013,"o":"m 14 0 l 196 999 l 407 999 l 676 309 l 797 999 l 999 999 l 822 0 l 612 0 l 342 693 l 221 0 l 14 0 m 862 1311 q 803 1188 840 1227 q 708 1149 766 1149 q 677 1151 691 1149 q 650 1157 662 1153 l 609 1170 q 581 1177 590 1175 q 566 1179 572 1179 q 525 1162 542 1179 q 501 1117 508 1145 l 423 1117 q 481 1241 443 1200 q 576 1283 519 1283 q 603 1280 587 1283 q 638 1272 620 1277 l 680 1259 q 700 1255 690 1257 q 715 1253 710 1253 q 757 1266 741 1253 q 784 1311 773 1279 l 862 1311 "},"F":{"x_min":16,"x_max":798,"ha":772,"o":"m 16 0 l 199 999 l 798 999 l 765 819 l 376 819 l 335 589 l 696 589 l 664 411 l 298 411 l 224 0 l 16 0 "},"*":{"x_min":84,"x_max":670,"ha":694,"o":"m 377 602 l 258 435 l 142 515 l 272 678 l 84 731 l 128 869 l 309 804 l 309 999 l 445 999 l 445 804 l 624 867 l 670 730 l 481 678 l 609 516 l 493 432 l 377 602 "},"†":{"x_min":56,"x_max":688,"ha":694,"o":"m 147 -144 l 277 583 l 56 583 l 77 704 l 301 704 l 351 997 l 510 997 l 458 704 l 688 704 l 669 583 l 440 583 l 317 -144 l 147 -144 "},"∕":{"x_min":-235,"x_max":466,"ha":232,"o":"m -235 -28 l 354 985 l 466 985 l -125 -28 l -235 -28 "},"°":{"x_min":24,"x_max":435,"ha":457,"o":"m 230 906 q 145 871 180 906 q 110 787 110 836 q 144 702 110 737 q 230 668 179 668 q 314 703 279 668 q 349 787 349 738 q 314 871 349 836 q 230 906 279 906 m 229 993 q 374 932 314 993 q 435 786 435 871 q 374 641 435 701 q 228 581 314 581 q 83 640 142 581 q 24 786 24 700 q 84 932 24 872 q 229 993 144 993 "},"å":{"x_min":0,"x_max":686,"ha":772,"o":"m 449 1037 q 393 1014 416 1037 q 370 959 370 991 q 393 904 370 927 q 449 881 416 881 q 505 903 482 881 q 529 959 529 926 q 506 1014 529 992 q 449 1037 483 1037 m 283 959 q 331 1077 283 1028 q 449 1126 379 1126 q 567 1076 518 1126 q 616 959 616 1027 q 567 840 616 889 q 449 792 519 792 q 331 840 379 792 q 283 959 283 889 m 445 270 l 461 355 q 341 326 417 341 q 195 213 195 299 q 217 160 195 180 q 280 140 240 140 q 389 176 343 140 q 445 270 435 212 m 77 535 q 171 705 95 650 q 388 760 248 760 q 607 704 528 760 q 686 551 686 648 q 684 531 686 541 q 681 509 683 520 l 613 116 q 610 91 611 102 q 609 70 609 81 q 613 40 609 52 q 628 18 618 28 l 628 0 l 424 0 l 424 73 q 328 5 376 26 q 219 -16 280 -16 q 59 41 118 -16 q 0 194 0 98 q 71 382 0 319 q 311 464 142 445 q 355 469 327 466 q 490 546 490 481 q 459 594 490 576 q 378 613 429 613 q 300 594 328 613 q 266 535 273 575 l 77 535 "},"0":{"x_min":37,"x_max":750,"ha":787,"o":"m 430 820 q 353 790 384 820 q 299 694 322 761 q 254 507 271 614 q 237 309 237 401 q 266 173 237 218 q 356 128 296 128 q 427 151 396 128 q 474 217 457 174 q 527 410 505 291 q 550 626 550 529 q 521 774 550 728 q 430 820 493 820 m 37 345 q 66 596 37 474 q 146 803 96 719 q 271 929 197 886 q 437 973 345 973 q 670 875 591 973 q 750 586 750 777 q 641 137 750 305 q 352 -31 532 -31 q 117 65 197 -31 q 37 345 37 161 "},"":{"x_min":77,"x_max":1021,"ha":1097,"o":"m 567 824 q 566 834 566 828 q 565 849 565 839 q 630 1005 565 934 q 790 1094 694 1077 q 791 1079 791 1087 q 791 1052 791 1070 q 721 893 791 963 q 583 823 651 823 l 578 823 q 573 824 576 823 q 567 824 570 824 m 1021 273 q 881 40 943 105 q 743 -24 820 -24 q 654 -1 709 -24 q 571 20 599 20 q 482 -1 540 20 q 396 -24 424 -24 q 309 5 353 -24 q 221 95 265 35 q 114 295 152 190 q 77 499 77 401 q 161 741 77 648 q 380 835 246 835 q 485 811 426 835 q 570 788 544 788 q 652 812 593 788 q 755 836 711 836 q 890 809 830 836 q 999 725 949 782 q 896 626 930 680 q 863 502 863 571 q 903 366 863 425 q 1021 273 944 307 "},"”":{"x_min":108,"x_max":633,"ha":624,"o":"m 633 999 l 601 829 q 521 679 583 735 q 369 621 458 623 l 380 686 q 467 725 435 694 q 510 814 500 757 l 405 814 l 440 999 l 633 999 m 372 999 l 339 829 q 259 679 322 735 q 108 621 197 623 l 118 686 q 205 726 173 694 q 248 814 237 758 l 143 814 l 178 999 l 372 999 "},"ö":{"x_min":22,"x_max":786,"ha":856,"o":"m 435 603 q 282 517 345 603 q 219 314 219 432 q 260 185 219 231 q 374 139 301 139 q 527 221 465 139 q 589 425 589 303 q 548 555 589 508 q 435 603 508 603 m 22 318 q 141 636 22 511 q 446 762 260 762 q 696 671 606 762 q 786 421 786 581 q 668 103 786 228 q 366 -22 550 -22 q 114 70 207 -22 q 22 318 22 162 m 533 867 l 561 1034 l 713 1034 l 683 867 l 533 867 m 301 867 l 330 1034 l 481 1034 l 451 867 l 301 867 "},"Õ":{"x_min":56,"x_max":1034,"ha":1091,"o":"m 580 846 q 354 725 441 846 q 267 416 267 605 q 330 220 267 289 q 508 151 393 151 q 632 180 576 151 q 726 265 687 209 q 796 416 770 329 q 822 588 822 503 q 760 780 822 714 q 580 846 698 846 m 56 415 q 101 668 56 548 q 230 874 147 788 q 395 987 301 948 q 595 1026 488 1026 q 918 904 803 1026 q 1034 565 1034 783 q 989 331 1034 446 q 867 131 945 216 q 700 11 795 51 q 494 -29 606 -29 q 171 89 287 -29 q 56 415 56 207 m 871 1311 q 812 1188 849 1227 q 717 1149 775 1149 q 686 1151 700 1149 q 659 1157 671 1153 l 618 1170 q 590 1177 599 1175 q 575 1179 581 1179 q 534 1162 551 1179 q 510 1117 517 1145 l 432 1117 q 490 1241 452 1200 q 585 1283 528 1283 q 612 1280 596 1283 q 647 1272 629 1277 l 689 1259 q 709 1255 699 1257 q 724 1253 719 1253 q 766 1266 750 1253 q 793 1311 782 1279 l 871 1311 "},"ć":{"x_min":29,"x_max":732,"ha":798,"o":"m 520 265 l 716 265 q 599 53 691 128 q 364 -21 508 -21 q 116 70 203 -21 q 29 330 29 162 q 135 641 29 522 q 416 761 242 761 q 645 689 564 761 q 732 482 727 617 l 537 482 q 504 570 535 539 q 413 602 473 602 q 277 521 329 602 q 225 314 225 441 q 263 186 225 231 q 371 142 301 142 q 465 174 426 142 q 520 265 504 206 m 674 1078 l 412 827 l 317 827 l 477 1078 l 674 1078 "},"þ":{"x_min":-50,"x_max":777,"ha":846,"o":"m -50 -296 l 177 999 l 371 999 l 311 652 q 409 735 358 708 q 519 762 459 762 q 706 678 636 762 q 777 455 777 595 q 677 115 777 251 q 432 -20 578 -20 q 297 18 351 -20 q 220 134 244 57 l 143 -296 l -50 -296 m 443 605 q 306 523 361 605 q 251 317 251 441 q 287 195 251 239 q 387 151 323 151 q 524 234 471 151 q 577 449 577 317 q 542 564 577 523 q 443 605 507 605 "},"]":{"x_min":-60,"x_max":491,"ha":530,"o":"m 491 999 l 270 -255 l -60 -255 l -36 -116 l 112 -116 l 284 860 l 140 860 l 165 999 l 491 999 "},"8":{"x_min":37,"x_max":744,"ha":787,"o":"m 432 818 q 339 779 375 818 q 304 677 304 740 q 336 589 304 622 q 424 557 368 557 q 516 596 481 557 q 552 697 552 635 q 520 786 552 754 q 432 818 489 818 m 370 418 q 270 372 309 418 q 232 257 232 327 q 265 158 232 195 q 356 121 299 121 q 462 167 422 121 q 502 291 502 214 q 465 382 502 347 q 370 418 429 418 m 229 522 q 146 603 174 555 q 119 712 119 650 q 205 901 119 827 q 428 975 291 975 q 658 905 573 975 q 744 718 744 835 q 701 571 744 629 q 573 483 658 512 q 666 396 635 447 q 697 276 697 346 q 606 53 697 135 q 359 -29 515 -29 q 124 48 212 -29 q 37 255 37 125 q 85 423 37 356 q 229 522 133 489 "},"R":{"x_min":16,"x_max":924,"ha":961,"o":"m 320 551 l 516 551 q 662 591 612 551 q 712 711 712 632 q 674 795 712 768 q 557 823 636 823 l 369 823 l 320 551 m 16 0 l 190 999 l 572 999 q 835 928 746 999 q 924 720 924 858 q 874 548 924 619 q 736 451 825 477 q 797 402 780 435 q 815 296 815 370 l 815 269 l 812 149 q 811 128 811 138 q 810 111 810 118 q 821 62 810 79 q 857 31 831 44 l 857 0 l 614 0 q 604 26 607 12 q 601 66 601 40 q 601 99 601 84 q 602 132 601 115 l 608 250 l 608 262 q 573 355 608 328 q 451 383 538 383 l 290 383 l 223 0 l 16 0 "},"o":{"x_min":22,"x_max":786,"ha":856,"o":"m 435 603 q 282 517 345 603 q 219 314 219 432 q 260 185 219 231 q 374 139 301 139 q 527 221 465 139 q 589 425 589 303 q 548 555 589 508 q 435 603 508 603 m 22 318 q 141 636 22 511 q 446 762 260 762 q 696 671 606 762 q 786 421 786 581 q 668 103 786 228 q 366 -22 550 -22 q 114 70 207 -22 q 22 318 22 162 "},"5":{"x_min":26,"x_max":739,"ha":787,"o":"m 27 259 l 216 259 l 216 250 q 248 157 216 190 q 340 124 281 124 q 472 183 422 124 q 522 341 522 243 q 484 453 522 412 q 378 494 446 494 q 302 476 334 494 q 249 425 269 459 l 73 425 l 185 943 l 739 943 l 711 782 l 312 782 l 271 603 q 338 634 300 624 q 427 645 376 645 q 641 566 564 645 q 718 346 718 487 q 612 73 718 176 q 329 -29 507 -29 q 107 41 189 -29 q 26 232 26 112 q 26 245 26 238 q 27 259 26 252 "},"õ":{"x_min":22,"x_max":786,"ha":856,"o":"m 435 603 q 282 517 345 603 q 219 314 219 432 q 260 185 219 231 q 374 139 301 139 q 527 221 465 139 q 589 425 589 303 q 548 555 589 508 q 435 603 508 603 m 22 318 q 141 636 22 511 q 446 762 260 762 q 696 671 606 762 q 786 421 786 581 q 668 103 786 228 q 366 -22 550 -22 q 114 70 207 -22 q 22 318 22 162 m 726 1050 q 667 927 704 966 q 572 888 630 888 q 541 890 555 888 q 514 896 526 892 l 473 909 q 445 916 454 914 q 430 918 436 918 q 389 901 406 918 q 365 856 372 884 l 287 856 q 345 980 307 939 q 440 1022 383 1022 q 467 1019 451 1022 q 502 1011 484 1016 l 544 998 q 564 994 554 996 q 579 992 574 992 q 621 1005 605 992 q 648 1050 637 1018 l 726 1050 "},",":{"x_min":-33,"x_max":256,"ha":395,"o":"m -33 -228 l -16 -156 q 71 -114 38 -153 q 118 0 105 -76 l 8 0 l 50 203 l 256 203 l 215 10 q 131 -166 190 -110 q -33 -228 72 -222 "},"d":{"x_min":24,"x_max":842,"ha":846,"o":"m 405 593 q 274 510 328 593 q 220 311 220 428 q 254 185 220 228 q 357 143 289 143 q 492 223 441 143 q 543 433 543 303 q 508 552 543 511 q 405 593 473 593 m 490 0 l 513 124 q 411 15 466 50 q 285 -20 356 -20 q 93 65 163 -20 q 24 298 24 151 q 122 627 24 494 q 365 761 220 761 q 501 725 450 761 q 579 612 552 690 l 650 999 l 842 999 l 667 0 l 490 0 "},"\"":{"x_min":53,"x_max":406,"ha":460,"o":"m 275 975 l 406 975 l 406 596 l 275 596 l 275 975 m 53 975 l 184 975 l 184 596 l 53 596 l 53 975 "},"˙":{"x_min":338,"x_max":530,"ha":694,"o":"m 338 864 l 368 1038 l 530 1038 l 498 864 l 338 864 "},"ê":{"x_min":26,"x_max":733,"ha":807,"o":"m 236 443 l 536 443 q 537 455 536 447 q 538 468 538 464 q 505 571 538 536 q 408 607 472 607 q 296 564 341 607 q 236 443 252 521 m 490 212 l 702 212 q 577 40 672 102 q 346 -22 482 -22 q 110 70 194 -22 q 26 327 26 162 q 132 638 26 517 q 408 760 239 760 q 646 673 560 760 q 733 434 733 586 q 730 387 733 413 q 720 306 728 360 l 219 306 l 219 301 q 255 180 219 222 q 357 138 291 138 q 435 156 403 138 q 490 212 468 174 m 649 827 l 561 827 l 472 968 l 317 827 l 221 827 l 402 1078 l 561 1078 l 649 827 "},"„":{"x_min":-37,"x_max":490,"ha":624,"o":"m 490 184 l 458 15 q 378 -134 440 -78 q 226 -193 315 -190 l 236 -127 q 324 -87 291 -119 q 367 0 357 -55 l 262 0 l 297 184 l 490 184 m 227 184 l 195 15 q 115 -134 177 -78 q -37 -193 52 -190 l -26 -127 q 61 -87 28 -119 q 104 0 93 -55 l 0 0 l 34 184 l 227 184 "},"Â":{"x_min":-98,"x_max":824,"ha":900,"o":"m 308 368 l 571 368 l 517 790 l 308 368 m -98 0 l 424 999 l 665 999 l 824 0 l 616 0 l 593 194 l 222 194 l 123 0 l -98 0 m 766 1088 l 678 1088 l 589 1229 l 434 1088 l 338 1088 l 519 1339 l 678 1339 l 766 1088 "},"Í":{"x_min":18,"x_max":558,"ha":429,"o":"m 18 0 l 201 999 l 411 999 l 229 0 l 18 0 m 558 1339 l 296 1088 l 201 1088 l 361 1339 l 558 1339 "},"´":{"x_min":282,"x_max":639,"ha":694,"o":"m 639 1078 l 377 827 l 282 827 l 442 1078 l 639 1078 "},"Ú":{"x_min":78,"x_max":1003,"ha":1015,"o":"m 194 999 l 407 999 l 294 373 q 289 338 291 354 q 288 310 288 322 q 331 195 288 234 q 460 157 375 157 q 606 210 552 157 q 681 378 659 264 l 794 999 l 1003 999 l 890 363 q 744 71 855 168 q 442 -26 632 -26 q 177 62 276 -26 q 78 298 78 150 q 81 357 78 324 q 91 429 84 390 l 194 999 m 851 1339 l 589 1088 l 494 1088 l 654 1339 l 851 1339 "},"Ý":{"x_min":25,"x_max":846,"ha":777,"o":"m 204 0 l 271 383 l 25 999 l 247 999 l 397 591 l 624 999 l 846 999 l 474 377 l 412 0 l 204 0 m 732 1339 l 470 1088 l 375 1088 l 535 1339 l 732 1339 "},"Ω":{"x_min":37.046875,"x_max":1029.15625,"ha":1068,"o":"m 831 174 l 1029 174 l 1029 0 l 617 0 l 617 197 q 746 344 701 255 q 791 545 791 434 q 722 762 791 683 q 532 841 653 841 q 343 762 412 841 q 275 545 275 683 q 319 344 275 434 q 449 197 364 255 l 449 0 l 37 0 l 37 174 l 234 174 q 107 350 148 255 q 66 555 66 444 q 193 895 66 767 q 532 1023 321 1023 q 872 895 744 1023 q 1000 555 1000 767 q 958 350 1000 444 q 831 174 917 255 "},"Ö":{"x_min":56,"x_max":1034,"ha":1091,"o":"m 580 846 q 354 725 441 846 q 267 416 267 605 q 330 220 267 289 q 508 151 393 151 q 632 180 576 151 q 726 265 687 209 q 796 416 770 329 q 822 588 822 503 q 760 780 822 714 q 580 846 698 846 m 56 415 q 101 668 56 548 q 230 874 147 788 q 395 987 301 948 q 595 1026 488 1026 q 918 904 803 1026 q 1034 565 1034 783 q 989 331 1034 446 q 867 131 945 216 q 700 11 795 51 q 494 -29 606 -29 q 171 89 287 -29 q 56 415 56 207 m 678 1128 l 706 1295 l 858 1295 l 828 1128 l 678 1128 m 446 1128 l 475 1295 l 626 1295 l 596 1128 l 446 1128 "},"z":{"x_min":-39,"x_max":676,"ha":701,"o":"m -39 0 l -13 153 l 392 582 l 38 582 l 65 741 l 676 741 l 648 587 l 243 164 l 622 164 l 592 0 l -39 0 "},"™":{"x_min":141,"x_max":981,"ha":1157,"o":"m 545 991 l 678 991 l 764 765 l 847 991 l 981 991 l 981 620 l 889 620 l 889 898 l 785 620 l 744 620 l 637 898 l 637 620 l 545 620 l 545 991 m 141 991 l 470 991 l 470 915 l 356 915 l 356 620 l 255 620 l 255 915 l 141 915 l 141 991 "},"ã":{"x_min":0,"x_max":686,"ha":772,"o":"m 462 355 q 341 326 418 341 q 195 213 195 299 q 218 160 195 180 q 280 140 241 140 q 389 176 343 140 q 446 270 436 213 l 462 355 m 426 73 q 328 4 377 25 q 221 -17 280 -17 q 59 41 119 -17 q 0 196 0 99 q 71 383 0 320 q 313 464 143 445 q 357 469 329 466 q 490 546 490 481 q 459 594 490 576 q 378 613 429 613 q 300 594 328 613 q 266 535 273 575 l 77 535 q 171 705 95 650 q 388 760 248 760 q 607 704 528 760 q 686 551 686 648 q 684 531 686 541 q 681 509 683 520 l 613 116 q 610 90 611 102 q 609 70 609 79 q 613 40 609 52 q 629 18 618 28 l 629 0 l 426 0 l 426 73 m 671 1050 q 612 927 649 966 q 517 888 575 888 q 486 890 500 888 q 459 896 471 892 l 418 909 q 390 916 399 914 q 375 918 381 918 q 334 901 351 918 q 310 856 317 884 l 232 856 q 290 980 252 939 q 385 1022 328 1022 q 412 1019 396 1022 q 447 1011 429 1016 l 489 998 q 509 994 499 996 q 524 992 519 992 q 566 1005 550 992 q 593 1050 582 1018 l 671 1050 "},"æ":{"x_min":0,"x_max":1164,"ha":1244,"o":"m 668 445 l 975 445 l 975 464 q 939 575 975 537 q 837 613 904 613 q 724 570 768 613 q 668 445 680 526 m 472 364 q 391 347 443 357 q 195 218 195 308 q 219 155 195 176 q 294 134 244 134 q 400 169 356 134 q 454 264 444 205 l 472 364 m 544 96 q 407 7 483 37 q 244 -23 331 -23 q 66 38 133 -23 q 0 199 0 99 q 27 319 0 263 q 103 407 55 375 q 355 465 167 451 q 397 468 382 467 q 485 490 461 473 q 509 544 509 507 q 477 598 509 578 q 392 618 446 618 q 306 598 336 618 q 270 535 277 578 l 77 535 q 172 704 91 646 q 393 762 254 762 q 530 741 475 762 q 616 676 584 720 q 725 742 668 721 q 850 764 782 764 q 1081 671 999 764 q 1164 412 1164 579 q 1159 317 1164 382 q 1158 309 1158 311 l 656 309 q 655 296 655 303 q 654 277 654 289 q 688 171 654 207 q 791 136 723 136 q 878 155 842 136 q 935 213 914 174 l 1136 213 q 1011 41 1106 104 q 780 -22 915 -22 q 641 6 699 -22 q 544 96 584 35 "},"É":{"x_min":16,"x_max":852,"ha":848,"o":"m 16 0 l 195 999 l 852 999 l 821 822 l 371 822 l 329 610 l 752 610 l 717 432 l 300 432 l 256 172 l 735 172 l 703 0 l 16 0 m 768 1339 l 506 1088 l 411 1088 l 571 1339 l 768 1339 "},"~":{"x_min":121,"x_max":1038,"ha":1157,"o":"m 1038 543 l 1038 393 q 904 323 967 346 q 780 301 841 301 q 718 306 749 301 q 656 321 687 311 q 607 338 639 327 q 382 389 459 389 q 261 363 324 389 q 121 282 199 338 l 121 433 q 259 505 193 481 q 383 529 325 529 q 580 490 462 529 l 583 489 q 620 476 595 485 q 783 440 726 440 q 902 464 841 440 q 1038 543 963 489 "},"³":{"x_min":4,"x_max":485,"ha":519,"o":"m 5 562 l 130 562 q 129 551 130 557 q 129 540 129 546 q 152 481 129 503 q 216 460 176 460 q 295 486 266 460 q 325 555 325 512 q 299 613 325 592 q 229 635 274 635 q 222 634 227 635 q 213 633 217 633 l 230 720 q 326 742 292 720 q 360 807 360 765 q 337 859 360 840 q 277 878 315 878 q 215 856 238 878 q 186 788 193 834 l 60 788 q 128 921 71 875 q 282 968 185 968 q 430 925 375 968 q 485 812 485 883 q 454 727 485 763 q 367 675 423 692 q 433 625 411 656 q 456 552 456 594 q 391 418 456 469 q 219 368 327 368 q 61 412 118 368 q 4 536 4 457 q 4 551 4 546 q 5 562 4 556 "},"¡":{"x_min":39,"x_max":418,"ha":458,"o":"m 418 999 l 384 796 l 178 796 l 209 999 l 418 999 m 319 692 l 251 0 l 39 0 l 215 692 l 319 692 "},"[":{"x_min":-3,"x_max":548,"ha":530,"o":"m -3 -257 l 218 997 l 548 997 l 524 858 l 375 858 l 203 -118 l 348 -118 l 324 -257 l -3 -257 "},"%":{"x_min":49,"x_max":1154,"ha":1194,"o":"m 796 232 q 826 156 796 187 q 901 126 856 126 q 976 157 945 126 q 1008 232 1008 188 q 976 307 1008 276 q 901 339 945 339 q 826 308 856 339 q 796 232 796 277 m 650 232 q 722 411 650 338 q 901 485 795 485 q 1079 410 1004 485 q 1154 232 1154 336 q 1079 54 1154 129 q 901 -20 1004 -20 q 722 53 795 -20 q 650 232 650 126 m 256 -20 l 835 979 l 943 979 l 364 -20 l 256 -20 m 195 725 q 225 650 195 681 q 300 620 255 620 q 375 651 344 620 q 407 725 407 683 q 375 801 407 769 q 300 833 344 833 q 225 801 256 833 q 195 725 195 770 m 49 727 q 121 906 49 833 q 299 979 194 979 q 478 905 403 979 q 553 727 553 831 q 478 549 553 624 q 299 474 403 474 q 121 547 194 474 q 49 727 49 621 "},"P":{"x_min":16,"x_max":882,"ha":921,"o":"m 315 513 l 476 513 q 628 556 577 513 q 679 686 679 599 q 640 784 679 750 q 529 818 601 818 l 368 818 l 315 513 m 16 0 l 190 999 l 533 999 q 791 920 700 999 q 882 697 882 841 q 775 434 882 526 q 468 343 668 343 l 283 343 l 221 0 l 16 0 "},"∏":{"x_min":102,"x_max":989,"ha":1093,"o":"m 102 999 l 989 999 l 989 -266 l 756 -266 l 756 803 l 335 803 l 335 -266 l 102 -266 l 102 999 "},"_":{"x_min":0,"x_max":694,"ha":694,"o":"m 0 -190 l 694 -190 l 694 -328 l 0 -328 l 0 -190 "},"ñ":{"x_min":-1,"x_max":754,"ha":835,"o":"m -1 0 l 128 741 l 307 741 l 286 627 q 405 731 346 699 q 537 764 464 764 q 695 709 636 764 q 754 561 754 654 q 751 518 754 539 q 745 475 749 497 l 661 0 l 465 0 l 547 469 q 551 496 550 484 q 553 517 553 509 q 529 579 553 558 q 460 601 505 601 q 332 547 385 601 q 262 399 279 493 l 192 0 l -1 0 m 722 1050 q 663 927 700 966 q 568 888 626 888 q 537 890 551 888 q 510 896 522 892 l 469 909 q 441 916 450 914 q 426 918 432 918 q 385 901 402 918 q 361 856 368 884 l 283 856 q 341 980 303 939 q 436 1022 379 1022 q 463 1019 447 1022 q 498 1011 480 1016 l 540 998 q 560 994 550 996 q 575 992 570 992 q 617 1005 601 992 q 644 1050 633 1018 l 722 1050 "},"‚":{"x_min":-37,"x_max":227,"ha":361,"o":"m 227 184 l 195 15 q 114 -134 177 -78 q -37 -193 52 -190 l -26 -127 q 61 -87 28 -119 q 104 0 93 -55 l 0 0 l 34 184 l 227 184 "},"Æ":{"x_min":-126,"x_max":1287,"ha":1284,"o":"m 313 368 l 558 368 l 640 826 l 572 826 l 313 368 m -126 0 l 466 999 l 1287 999 l 1256 822 l 838 822 l 801 610 l 1187 610 l 1152 432 l 768 432 l 720 172 l 1170 172 l 1138 0 l 490 0 l 526 194 l 214 194 l 104 0 l -126 0 "},"₣":{"x_min":16,"x_max":1314,"ha":1295,"o":"m 16 0 l 199 999 l 798 999 l 765 819 l 376 819 l 335 589 l 696 589 l 664 411 l 298 411 l 224 0 l 16 0 m 775 0 l 907 741 l 1083 741 l 1054 596 q 1152 722 1099 683 q 1283 761 1206 761 q 1301 760 1295 761 q 1314 759 1308 760 l 1277 554 q 1237 561 1252 559 q 1210 564 1221 564 q 1096 511 1140 564 q 1031 350 1052 459 l 969 0 l 775 0 "},"ğ":{"x_min":-7,"x_max":800,"ha":847,"o":"m 410 590 q 275 513 328 590 q 223 316 223 436 q 259 200 223 241 q 362 160 295 160 q 494 234 444 160 q 544 434 544 308 q 510 550 544 511 q 410 590 476 590 m -7 -69 l 190 -69 q 218 -131 191 -110 q 300 -152 245 -152 q 427 -102 388 -152 q 493 115 466 -53 q 401 25 453 54 q 285 -4 350 -4 q 95 81 165 -4 q 26 313 26 166 q 125 632 26 507 q 377 758 224 758 q 514 718 464 758 q 588 592 564 679 l 613 741 l 800 741 l 667 2 q 552 -228 639 -158 q 289 -298 464 -298 q 72 -240 147 -298 q -7 -69 -2 -182 m 319 1055 l 401 1055 l 401 1046 q 426 976 401 999 q 503 954 451 954 q 597 979 559 954 q 655 1055 635 1004 l 741 1055 q 650 900 713 952 q 491 848 587 848 q 361 891 405 848 q 318 1023 318 935 q 318 1042 318 1036 q 319 1055 318 1048 "},"ª":{"x_min":52.953125,"x_max":595,"ha":661,"o":"m 69 373 l 558 373 l 543 290 l 52 290 l 69 373 m 425 733 q 334 712 392 723 q 221 630 221 692 q 238 592 221 606 q 287 578 256 578 q 369 604 334 578 q 412 672 404 630 l 425 733 m 397 528 q 324 480 361 495 q 241 465 287 465 q 119 506 164 465 q 74 616 74 547 q 127 750 74 705 q 311 809 180 795 q 339 812 322 810 q 446 869 446 822 q 422 904 446 891 q 356 917 399 917 q 300 902 320 917 q 274 861 280 888 l 132 861 q 204 983 146 943 q 369 1023 263 1023 q 535 983 475 1023 q 595 873 595 943 q 592 844 595 863 q 591 841 592 842 l 540 561 q 538 547 539 554 q 538 527 538 540 q 541 504 538 512 q 551 488 544 496 l 551 475 l 397 475 l 397 528 "},"Œ":{"x_min":58,"x_max":1513,"ha":1511,"o":"m 738 296 l 812 708 q 721 814 776 779 q 588 850 665 850 q 358 728 447 850 q 269 416 269 607 q 330 221 269 293 q 496 149 392 149 q 634 186 572 149 q 738 296 696 224 m 685 0 l 699 80 q 587 -2 649 23 q 439 -29 525 -29 q 165 96 273 -29 q 58 416 58 221 q 100 653 58 538 q 219 857 142 768 q 384 982 291 939 q 581 1026 476 1026 q 736 994 671 1026 q 846 898 801 963 l 864 999 l 1513 999 l 1481 822 l 1033 822 l 991 610 l 1413 610 l 1378 432 l 960 432 l 917 172 l 1396 172 l 1364 0 l 685 0 "},"T":{"x_min":69,"x_max":854,"ha":786,"o":"m 205 0 l 349 822 l 69 822 l 99 999 l 854 999 l 822 822 l 560 822 l 416 0 l 205 0 "},"š":{"x_min":5,"x_max":676,"ha":717,"o":"m 5 252 l 189 252 q 227 158 191 192 q 324 125 262 125 q 406 145 379 125 q 434 204 434 165 q 327 288 434 253 l 320 290 q 119 391 170 339 q 69 530 69 443 q 146 698 69 638 q 362 758 223 758 q 579 693 502 758 q 658 512 656 628 l 474 512 q 435 588 467 561 q 351 615 404 615 q 279 596 305 615 q 253 547 253 578 q 382 462 253 502 l 386 460 q 573 366 524 418 q 622 227 622 315 q 540 45 622 113 q 321 -22 459 -22 q 88 48 171 -22 q 5 249 5 119 l 5 252 m 248 1078 l 335 1078 l 424 936 l 580 1078 l 676 1078 l 495 827 l 335 827 l 248 1078 "},"Þ":{"x_min":16,"x_max":859,"ha":901,"o":"m 290 401 l 456 401 q 610 439 558 401 q 662 553 662 477 q 624 639 662 611 q 510 668 587 668 l 338 668 l 290 401 m 16 0 l 191 999 l 396 999 l 367 833 l 513 833 q 770 762 681 833 q 859 558 859 692 q 752 316 859 401 q 449 231 646 231 l 260 231 l 220 0 l 16 0 "},"j":{"x_min":-131,"x_max":376,"ha":374,"o":"m 151 824 l 182 999 l 376 999 l 344 824 l 151 824 m -131 -289 l -109 -137 l -101 -137 q -35 -121 -53 -137 q -7 -53 -17 -105 l 137 741 l 329 741 l 186 -39 q 105 -241 160 -188 q -73 -294 50 -294 q -97 -292 -82 -294 q -131 -289 -111 -291 "},"1":{"x_min":128,"x_max":614,"ha":787,"o":"m 252 0 l 372 706 q 248 680 308 689 q 128 672 187 672 l 151 806 q 343 857 272 818 q 454 971 414 896 l 614 971 l 445 0 l 252 0 "},"›":{"x_min":-20,"x_max":280,"ha":328,"o":"m 91 646 l 280 432 l 250 287 l -20 93 l 15 261 l 174 373 l 62 501 l 91 646 "},"<":{"x_min":179,"x_max":978,"ha":1157,"o":"m 978 809 l 978 660 l 372 413 l 978 166 l 978 18 l 179 346 l 179 481 l 978 809 "},"t":{"x_min":12,"x_max":437,"ha":440,"o":"m 328 -6 q 278 -19 303 -15 q 226 -24 252 -24 q 82 9 127 -24 q 37 116 37 43 q 38 146 37 131 q 41 176 39 161 l 114 601 l 12 601 l 35 741 l 138 741 l 177 960 l 370 960 l 331 741 l 437 741 l 414 601 l 309 601 l 247 246 q 240 211 244 230 q 237 190 237 192 q 248 157 237 167 q 285 147 260 147 q 309 149 294 147 q 357 161 324 152 l 328 -6 "},"¬":{"x_min":172,"x_max":984,"ha":1157,"o":"m 172 586 l 984 586 l 984 246 l 849 246 l 849 453 l 172 453 l 172 586 "},"ù":{"x_min":35,"x_max":792,"ha":835,"o":"m 792 741 l 660 0 l 482 0 l 502 117 q 382 12 441 44 q 251 -20 323 -20 q 93 34 152 -20 q 35 181 35 89 q 37 226 35 204 q 43 269 39 248 l 126 741 l 324 741 l 241 275 q 237 250 238 262 q 236 227 236 238 q 260 164 236 186 q 329 143 284 143 q 456 196 403 143 q 526 345 509 250 l 599 741 l 792 741 m 495 827 l 298 1078 l 469 1078 l 583 827 l 495 827 "},"ï":{"x_min":3,"x_max":475,"ha":370,"o":"m 3 0 l 132 741 l 326 741 l 197 0 l 3 0 m 295 867 l 323 1034 l 475 1034 l 445 867 l 295 867 m 63 867 l 92 1034 l 243 1034 l 213 867 l 63 867 "},"Ò":{"x_min":56,"x_max":1034,"ha":1091,"o":"m 580 846 q 354 725 441 846 q 267 416 267 605 q 330 220 267 289 q 508 151 393 151 q 632 180 576 151 q 726 265 687 209 q 796 416 770 329 q 822 588 822 503 q 760 780 822 714 q 580 846 698 846 m 56 415 q 101 668 56 548 q 230 874 147 788 q 395 987 301 948 q 595 1026 488 1026 q 918 904 803 1026 q 1034 565 1034 783 q 989 331 1034 446 q 867 131 945 216 q 700 11 795 51 q 494 -29 606 -29 q 171 89 287 -29 q 56 415 56 207 m 644 1088 l 447 1339 l 618 1339 l 732 1088 l 644 1088 "},"&":{"x_min":-4,"x_max":837,"ha":932,"o":"m 330 437 q 224 368 257 405 q 191 282 191 331 q 226 185 191 223 q 320 148 262 148 q 394 160 356 148 q 475 200 431 173 l 330 437 m 599 0 l 561 61 q 432 0 500 20 q 292 -22 364 -22 q 79 60 163 -22 q -4 269 -4 143 q 54 436 -4 366 q 249 570 112 506 l 216 627 q 182 699 193 665 q 172 768 172 734 q 244 933 172 868 q 430 999 317 999 q 620 936 548 999 q 693 772 693 873 q 642 625 693 689 q 491 514 592 561 l 606 327 q 649 401 632 365 q 674 472 666 436 l 837 472 q 786 317 819 385 q 697 186 753 249 l 811 0 l 599 0 m 410 647 q 492 707 466 675 q 518 781 518 739 q 495 836 518 816 q 434 857 473 857 q 371 835 395 857 q 347 780 347 814 q 397 665 347 743 q 410 647 405 653 "},"":{"x_min":-61,"x_max":752,"ha":787,"o":"m 62 613 q 199 917 104 813 q 437 1022 295 1022 q 666 930 583 1022 q 752 678 749 839 l 551 677 l 551 706 q 520 824 551 785 q 431 864 490 864 q 332 806 370 864 q 269 613 295 748 l 511 613 l 478 538 l 256 538 q 252 507 255 532 q 246 461 248 482 l 443 461 l 411 386 l 240 386 q 238 357 239 371 q 238 318 238 342 q 267 180 238 226 q 357 135 297 135 q 456 184 416 135 q 510 323 496 233 l 713 323 q 586 68 685 163 q 351 -26 488 -26 q 119 72 199 -26 q 39 359 39 170 l 39 386 l -53 386 l -19 461 l 41 461 q 42 466 42 463 q 50 538 45 508 l -61 538 l -27 613 l 62 613 "},"˝":{"x_min":256,"x_max":763,"ha":694,"o":"m 450 827 l 586 1078 l 763 1078 l 526 827 l 450 827 m 256 827 l 358 1078 l 528 1078 l 318 827 l 256 827 "},"I":{"x_min":18,"x_max":411,"ha":429,"o":"m 18 0 l 201 999 l 411 999 l 229 0 l 18 0 "},"G":{"x_min":54,"x_max":995.71875,"ha":1080,"o":"m 765 0 l 764 108 q 632 6 709 41 q 458 -28 555 -28 q 165 93 277 -28 q 54 410 54 214 q 92 641 54 529 q 202 842 131 754 q 370 974 273 930 q 588 1019 467 1019 q 884 922 776 1019 q 993 657 991 826 l 788 657 q 731 793 782 746 q 587 841 680 841 q 457 810 514 841 q 360 720 401 780 q 295 575 319 657 q 272 410 272 494 q 332 215 272 285 q 498 146 392 146 q 672 203 598 146 q 764 352 745 260 l 514 352 l 543 515 l 995 515 l 904 0 l 765 0 "},"`":{"x_min":227,"x_max":512,"ha":694,"o":"m 424 827 l 227 1078 l 398 1078 l 512 827 l 424 827 "},"·":{"x_min":92,"x_max":303,"ha":395,"o":"m 92 476 q 122 551 92 520 q 197 582 153 582 q 272 551 241 582 q 303 476 303 520 q 272 401 303 432 q 197 371 241 371 q 122 401 153 371 q 92 476 92 431 "},"¿":{"x_min":21,"x_max":682,"ha":775,"o":"m 586 981 l 551 789 l 347 789 l 378 981 l 586 981 m 524 678 q 487 533 519 591 q 382 425 455 475 q 337 395 366 414 q 227 243 227 324 q 260 159 227 191 q 348 128 293 128 q 448 167 411 128 q 497 282 486 207 l 682 282 q 580 52 668 134 q 349 -29 493 -29 q 111 47 202 -29 q 21 245 21 124 q 43 356 21 304 q 108 444 66 408 q 208 512 145 477 q 285 558 270 548 q 330 607 317 581 q 345 678 342 633 l 524 678 "},"ý":{"x_min":-22,"x_max":746,"ha":708,"o":"m -22 -285 l -3 -138 q 24 -141 5 -139 q 53 -143 44 -143 q 129 -116 104 -143 q 154 -35 154 -89 q 149 13 154 -19 q 148 21 149 18 l 33 741 l 225 741 l 298 200 l 543 741 l 746 741 l 291 -153 q 205 -265 251 -233 q 87 -298 158 -298 q 43 -295 68 -298 q -22 -285 19 -292 m 646 1078 l 384 827 l 289 827 l 449 1078 l 646 1078 "},"º":{"x_min":56.875,"x_max":667,"ha":725,"o":"m 71 373 l 562 373 l 546 290 l 56 290 l 71 373 m 400 908 q 283 846 331 908 q 236 699 236 785 q 267 606 236 640 q 354 573 299 573 q 470 632 423 573 q 517 780 517 692 q 485 874 517 840 q 400 908 454 908 m 86 702 q 176 932 86 841 q 409 1023 267 1023 q 598 957 530 1023 q 667 776 667 891 q 577 547 667 637 q 347 458 487 458 q 156 524 226 458 q 86 702 86 590 "},"∞":{"x_min":139,"x_max":1019,"ha":1157,"o":"m 638 380 q 710 303 669 329 q 805 278 752 278 q 908 315 868 278 q 948 413 948 353 q 911 510 948 472 q 820 549 874 549 q 726 509 769 549 q 638 380 683 470 m 519 447 q 447 523 489 498 q 352 549 406 549 q 249 510 289 549 q 210 412 210 472 q 246 316 210 354 q 337 278 283 278 q 431 317 388 278 q 519 447 474 356 m 581 309 q 482 177 535 220 q 364 135 429 135 q 204 214 269 135 q 139 413 139 294 q 196 615 139 538 q 348 692 254 692 q 463 651 410 692 q 574 517 516 610 q 675 649 621 606 q 793 693 729 693 q 953 612 888 693 q 1019 413 1019 532 q 960 213 1019 289 q 809 136 902 136 q 693 176 746 136 q 581 309 641 215 "},";":{"x_min":-19,"x_max":363,"ha":427,"o":"m 115 528 l 150 729 l 363 729 l 326 528 l 115 528 m -19 -229 l -1 -157 q 86 -115 53 -154 q 133 0 120 -76 l 22 0 l 63 200 l 269 200 l 230 9 q 145 -167 204 -111 q -19 -229 86 -223 "},"6":{"x_min":50,"x_max":746,"ha":787,"o":"m 389 461 q 282 409 323 461 q 241 273 241 357 q 275 162 241 202 q 373 122 310 122 q 480 174 439 122 q 522 313 522 227 q 487 422 522 383 q 389 461 452 461 m 566 708 q 536 792 563 763 q 458 821 508 821 q 339 754 385 821 q 280 567 292 688 q 352 605 313 592 q 437 618 391 618 q 639 537 562 618 q 717 328 717 457 q 620 68 717 168 q 366 -31 523 -31 q 130 65 210 -31 q 50 348 50 161 q 160 803 50 634 q 459 973 271 973 q 670 904 596 973 q 746 708 744 835 l 566 708 "},"n":{"x_min":-1,"x_max":754,"ha":835,"o":"m -1 0 l 128 741 l 307 741 l 286 627 q 405 731 346 699 q 537 764 464 764 q 695 709 636 764 q 754 561 754 654 q 751 518 754 539 q 745 475 749 497 l 661 0 l 465 0 l 547 469 q 551 496 550 484 q 553 517 553 509 q 529 579 553 558 q 460 601 505 601 q 332 547 385 601 q 262 399 279 493 l 192 0 l -1 0 "},"¤":{"x_min":-61,"x_max":752,"ha":787,"o":"m 62 613 q 199 917 104 813 q 437 1022 295 1022 q 666 930 583 1022 q 752 678 749 839 l 551 677 l 551 706 q 520 824 551 785 q 431 864 490 864 q 332 806 370 864 q 269 613 295 748 l 511 613 l 478 538 l 256 538 q 252 507 255 532 q 246 461 248 482 l 443 461 l 411 386 l 240 386 q 238 357 239 371 q 238 318 238 342 q 267 180 238 226 q 357 135 297 135 q 456 184 416 135 q 510 323 496 233 l 713 323 q 586 68 685 163 q 351 -26 488 -26 q 119 72 199 -26 q 39 359 39 170 l 39 386 l -53 386 l -19 461 l 41 461 q 42 466 42 463 q 50 538 45 508 l -61 538 l -27 613 l 62 613 "},"∂":{"x_min":52,"x_max":694,"ha":742,"o":"m 517 448 q 537 577 530 516 q 544 682 544 637 q 526 789 544 750 q 479 829 509 829 q 379 779 449 829 q 270 729 310 729 q 222 749 242 729 q 202 799 202 770 q 261 879 202 842 q 404 916 320 916 q 614 806 535 916 q 694 512 694 696 q 587 132 694 282 q 318 -17 481 -17 q 127 60 202 -17 q 52 258 52 138 q 130 481 52 392 q 325 571 209 571 q 441 541 395 571 q 517 448 487 511 m 476 351 q 449 471 476 429 q 374 514 423 514 q 260 423 305 514 q 215 191 215 332 q 241 71 215 112 q 317 30 267 30 q 431 120 386 30 q 476 351 476 211 "},"p":{"x_min":-50,"x_max":777,"ha":846,"o":"m 443 605 q 306 523 361 605 q 251 317 251 441 q 287 195 251 239 q 387 151 323 151 q 524 234 471 151 q 577 449 577 317 q 542 564 577 523 q 443 605 507 605 m -50 -296 l 131 741 l 306 741 l 283 618 q 383 727 328 693 q 513 762 438 762 q 706 679 635 762 q 777 455 777 597 q 677 115 777 251 q 432 -20 578 -20 q 297 18 351 -20 q 220 134 244 57 l 143 -296 l -50 -296 "},"‡":{"x_min":-31,"x_max":690,"ha":694,"o":"m 143 -144 l 190 113 l -31 113 l -11 234 l 213 234 l 277 618 l 56 618 l 77 739 l 302 739 l 347 997 l 504 997 l 459 739 l 690 739 l 671 618 l 441 618 l 370 234 l 601 234 l 582 113 l 352 113 l 312 -144 l 143 -144 "},"√":{"x_min":49,"x_max":914,"ha":913,"o":"m 773 1149 l 914 1149 l 914 1062 l 844 1062 l 442 -28 l 375 -28 l 164 554 l 69 519 l 49 596 l 273 675 l 433 226 l 773 1149 "},"S":{"x_min":22,"x_max":820,"ha":865,"o":"m 22 317 l 225 317 l 225 307 q 271 191 225 231 q 404 151 317 151 q 524 184 482 151 q 566 282 566 218 q 538 348 566 320 q 410 419 510 375 q 162 565 217 504 q 108 722 108 627 q 201 942 108 860 q 455 1025 295 1025 q 723 945 627 1025 q 820 725 820 866 l 820 712 l 623 712 q 578 814 621 778 q 455 851 535 851 q 351 822 388 851 q 315 744 315 794 q 455 614 315 673 q 492 598 479 604 q 709 464 650 531 q 769 295 769 397 q 669 58 769 144 q 395 -28 569 -28 q 122 59 223 -28 q 22 297 22 147 l 22 317 "},"/":{"x_min":5,"x_max":434,"ha":440,"o":"m 5 -129 l 341 1025 l 434 1025 l 96 -129 l 5 -129 "},"y":{"x_min":-22,"x_max":746,"ha":708,"o":"m -22 -285 l -3 -138 q 24 -141 5 -139 q 53 -143 44 -143 q 129 -116 104 -143 q 154 -35 154 -89 q 149 13 154 -19 q 148 21 149 18 l 33 741 l 225 741 l 298 200 l 543 741 l 746 741 l 291 -153 q 205 -265 251 -233 q 87 -298 158 -298 q 43 -295 68 -298 q -22 -285 19 -292 "},"≈":{"x_min":121,"x_max":1038,"ha":1157,"o":"m 1038 404 l 1038 256 q 903 183 966 206 q 780 161 841 161 q 586 206 716 161 q 382 252 456 252 q 263 226 325 252 q 121 144 202 201 l 121 292 q 261 366 196 342 q 383 390 325 390 q 597 345 467 390 q 783 301 727 301 q 901 325 841 301 q 1038 404 961 349 m 1038 684 l 1038 535 q 904 464 966 486 q 782 442 843 442 q 588 486 718 442 q 382 531 458 531 q 266 507 326 531 q 121 424 207 483 l 121 572 q 259 645 193 621 q 383 670 325 670 q 598 625 468 670 q 783 581 728 581 q 899 604 840 581 q 1038 684 958 628 "},"g":{"x_min":-7,"x_max":800,"ha":847,"o":"m 410 590 q 275 513 328 590 q 223 316 223 436 q 259 200 223 241 q 362 160 295 160 q 494 234 444 160 q 544 434 544 308 q 510 550 544 511 q 410 590 476 590 m -7 -69 l 190 -69 q 218 -131 191 -110 q 300 -152 245 -152 q 427 -102 388 -152 q 493 115 466 -53 q 401 25 453 54 q 285 -4 350 -4 q 95 81 165 -4 q 26 313 26 166 q 125 632 26 507 q 377 758 224 758 q 514 718 464 758 q 588 592 564 679 l 613 741 l 800 741 l 667 2 q 552 -228 639 -158 q 289 -298 464 -298 q 72 -240 147 -298 q -7 -69 -2 -182 "},"²":{"x_min":-3,"x_max":487,"ha":519,"o":"m 451 483 l 431 385 l -3 385 q 46 524 3 466 q 198 650 89 582 l 206 655 q 356 809 356 748 q 333 857 356 839 q 272 875 310 875 q 205 852 230 875 q 173 782 181 829 l 47 782 q 113 919 53 869 q 272 970 173 970 q 428 924 369 970 q 487 804 487 879 q 451 702 487 746 q 281 581 415 658 q 197 525 225 549 q 164 483 168 501 l 451 483 "},"ë":{"x_min":26,"x_max":733,"ha":807,"o":"m 236 443 l 536 443 q 537 455 536 447 q 538 468 538 464 q 505 571 538 536 q 408 607 472 607 q 296 564 341 607 q 236 443 252 521 m 490 212 l 702 212 q 577 40 672 102 q 346 -22 482 -22 q 110 70 194 -22 q 26 327 26 162 q 132 638 26 517 q 408 760 239 760 q 646 673 560 760 q 733 434 733 586 q 730 387 733 413 q 720 306 728 360 l 219 306 l 219 301 q 255 180 219 222 q 357 138 291 138 q 435 156 403 138 q 490 212 468 174 m 495 867 l 523 1034 l 675 1034 l 645 867 l 495 867 m 263 867 l 292 1034 l 443 1034 l 413 867 l 263 867 "},"–":{"x_min":-36,"x_max":685,"ha":694,"o":"m -36 296 l -9 443 l 685 443 l 658 296 l -36 296 "},"ƒ":{"x_min":16,"x_max":731,"ha":787,"o":"m 16 -264 l 45 -102 q 84 -121 65 -115 q 118 -128 102 -128 q 179 -101 159 -128 q 211 -3 199 -75 l 297 532 l 129 532 l 148 666 l 321 666 l 336 750 q 423 962 364 900 q 590 1025 482 1025 q 658 1018 624 1025 q 731 997 692 1012 l 699 842 q 656 861 675 855 q 623 868 638 868 q 558 840 580 868 q 525 743 535 812 l 513 666 l 681 666 l 660 532 l 496 532 l 431 124 q 328 -218 388 -141 q 147 -295 269 -295 q 78 -287 110 -295 q 16 -264 45 -280 "},"J":{"x_min":-46,"x_max":669,"ha":684,"o":"m -25 359 l 155 359 q 143 282 147 313 q 139 234 139 251 q 160 169 139 191 q 222 147 181 147 q 291 176 265 147 q 328 263 318 205 l 458 999 l 669 999 l 547 299 q 439 45 515 119 q 214 -28 364 -28 q 21 34 89 -28 q -46 211 -46 97 q -40 277 -46 241 q -25 359 -35 314 "},"Ã":{"x_min":-98,"x_max":824,"ha":900,"o":"m 308 368 l 571 368 l 517 790 l 308 368 m -98 0 l 424 999 l 665 999 l 824 0 l 616 0 l 593 194 l 222 194 l 123 0 l -98 0 m 805 1311 q 746 1188 783 1227 q 651 1149 709 1149 q 620 1151 634 1149 q 593 1157 605 1153 l 552 1170 q 524 1177 533 1175 q 509 1179 515 1179 q 468 1162 485 1179 q 444 1117 451 1145 l 366 1117 q 424 1241 386 1200 q 519 1283 462 1283 q 546 1280 530 1283 q 581 1272 563 1277 l 623 1259 q 643 1255 633 1257 q 658 1253 653 1253 q 700 1266 684 1253 q 727 1311 716 1279 l 805 1311 "},"©":{"x_min":75,"x_max":1083,"ha":1157,"o":"m 821 608 l 693 608 q 657 681 688 655 q 577 708 627 708 q 480 652 515 708 q 445 498 445 597 q 480 346 445 398 q 582 294 515 294 q 662 322 632 294 q 698 403 691 351 l 829 403 q 755 252 823 309 q 578 196 686 196 q 379 275 452 196 q 307 494 307 355 q 381 716 307 633 q 580 800 455 800 q 750 747 683 800 q 821 608 816 694 m 579 918 q 416 886 492 918 q 282 796 341 855 q 189 658 221 735 q 158 497 158 581 q 189 337 158 413 q 282 201 221 261 q 418 109 341 141 q 579 78 494 78 q 740 109 663 78 q 878 202 816 141 q 969 335 938 260 q 1000 497 1000 411 q 968 659 1000 582 q 877 794 936 735 q 741 886 816 855 q 579 918 665 918 m 577 1003 q 772 965 680 1003 q 937 854 864 927 q 1045 691 1008 783 q 1083 496 1083 599 q 1046 304 1083 393 q 937 144 1009 214 q 768 32 861 71 q 577 -7 676 -7 q 387 31 477 -7 q 223 142 296 69 q 112 306 150 214 q 75 496 75 397 q 112 689 75 598 q 223 855 150 781 q 385 965 294 927 q 577 1003 475 1003 "},"˘":{"x_min":241,"x_max":664,"ha":694,"o":"m 242 1055 l 324 1055 l 324 1046 q 349 976 324 999 q 426 954 374 954 q 520 979 482 954 q 578 1055 558 1004 l 664 1055 q 573 900 636 952 q 414 848 510 848 q 284 891 328 848 q 241 1023 241 935 q 241 1042 241 1036 q 242 1055 241 1048 "},"≥":{"x_min":175,"x_max":983,"ha":1157,"o":"m 175 133 l 983 133 l 983 -1 l 175 -1 l 175 133 m 176 842 l 981 580 l 981 463 l 176 202 l 176 343 l 740 521 l 176 700 l 176 842 "},"D":{"x_min":16,"x_max":964,"ha":1021,"o":"m 256 176 l 421 176 q 574 208 511 176 q 678 309 636 241 q 732 440 713 368 q 752 583 752 511 q 699 755 752 696 q 545 814 646 814 l 370 814 l 256 176 m 16 0 l 192 999 l 549 999 q 854 891 745 999 q 964 590 964 783 q 919 338 964 456 q 796 139 875 219 q 624 32 722 64 q 357 0 526 0 l 16 0 "},"ÿ":{"x_min":-22,"x_max":746,"ha":708,"o":"m -22 -285 l -3 -138 q 24 -141 5 -139 q 53 -143 44 -143 q 129 -116 104 -143 q 154 -35 154 -89 q 149 13 154 -19 q 148 21 149 18 l 33 741 l 225 741 l 298 200 l 543 741 l 746 741 l 291 -153 q 205 -265 251 -233 q 87 -298 158 -298 q 43 -295 68 -298 q -22 -285 19 -292 m 465 867 l 493 1034 l 645 1034 l 615 867 l 465 867 m 233 867 l 262 1034 l 413 1034 l 383 867 l 233 867 "},"ł":{"x_min":-51.546875,"x_max":451.203125,"ha":395,"o":"m 12 0 l 81 401 l 5 356 l -51 455 l 106 543 l 185 999 l 380 999 l 316 630 l 392 674 l 451 575 l 292 490 l 206 0 l 12 0 "},"Ł":{"x_min":-59.671875,"x_max":729,"ha":772,"o":"m 26 0 l 92 378 l 6 327 l -59 441 l 121 544 l 201 999 l 412 999 l 349 642 l 574 775 l 641 661 l 320 477 l 267 176 l 729 176 l 698 0 l 26 0 "},"$":{"x_min":20,"x_max":747,"ha":787,"o":"m 378 584 l 422 837 l 415 837 q 311 803 349 837 q 274 713 274 770 q 298 640 274 670 q 378 584 322 610 m 367 120 l 380 120 q 490 157 448 120 q 532 253 532 194 q 505 325 532 295 q 414 385 479 356 l 367 120 m 249 -153 l 272 -15 q 87 72 154 1 q 20 249 20 143 q 22 276 20 255 q 22 285 22 281 l 195 285 l 195 275 q 220 174 195 210 q 297 128 245 139 l 347 416 q 162 537 220 470 q 105 696 105 604 q 189 903 105 827 q 421 979 274 979 l 446 979 l 460 1055 l 530 1055 l 517 973 q 688 883 630 953 q 747 696 747 813 l 747 682 l 584 682 q 560 784 582 749 q 492 830 538 820 l 444 562 q 643 439 585 506 q 702 270 702 372 q 612 56 702 137 q 377 -24 522 -24 q 356 -23 364 -24 q 342 -22 349 -23 l 320 -153 l 249 -153 "},"w":{"x_min":37,"x_max":1087,"ha":1061,"o":"m 116 0 l 37 741 l 224 741 l 262 228 l 462 741 l 652 741 l 680 233 l 888 741 l 1087 741 l 748 0 l 552 0 l 520 500 l 320 0 l 116 0 "},"\\":{"x_min":111,"x_max":329,"ha":440,"o":"m 199 1025 l 329 -129 l 238 -129 l 111 1025 l 199 1025 "},"∫":{"x_min":33,"x_max":771,"ha":804,"o":"m 231 -171 q 313 262 301 -171 q 318 405 315 354 q 401 902 328 750 q 623 1054 473 1054 q 730 1020 690 1054 q 771 933 771 987 q 745 867 771 892 q 677 843 719 843 q 625 859 646 843 q 597 905 604 875 q 592 942 594 919 q 572 974 590 973 q 492 544 505 974 q 488 423 489 465 q 466 122 480 223 q 426 -47 453 21 q 326 -200 388 -147 q 180 -253 263 -253 q 74 -219 115 -253 q 33 -133 33 -186 q 59 -66 33 -91 q 130 -41 85 -41 q 188 -62 164 -41 q 212 -111 212 -83 q 216 -160 212 -150 q 231 -171 220 -171 "},"Ì":{"x_min":18,"x_max":431,"ha":429,"o":"m 18 0 l 201 999 l 411 999 l 229 0 l 18 0 m 343 1088 l 146 1339 l 317 1339 l 431 1088 l 343 1088 "},"Ç":{"x_min":60,"x_max":979,"ha":1023,"o":"m 738 343 l 948 343 q 795 71 916 166 q 481 -25 675 -22 l 467 -61 q 585 -90 545 -61 q 626 -179 626 -120 q 578 -289 626 -249 q 444 -329 530 -329 q 358 -319 408 -329 q 248 -291 308 -310 l 278 -209 q 364 -234 324 -226 q 442 -242 404 -242 q 488 -227 471 -242 q 506 -189 506 -212 q 481 -149 506 -160 q 373 -138 457 -139 l 413 -26 q 154 118 248 -1 q 60 427 60 239 q 206 855 60 689 q 584 1022 353 1022 q 873 928 771 1022 q 979 661 976 834 l 776 661 l 776 666 q 723 799 776 751 q 578 848 670 848 q 359 727 445 848 q 274 421 274 607 q 335 229 274 295 q 510 163 396 163 q 661 210 601 163 q 738 343 720 257 "},"C":{"x_min":60,"x_max":979,"ha":1023,"o":"m 738 343 l 948 343 q 796 73 918 170 q 488 -24 674 -24 q 173 95 287 -24 q 60 427 60 215 q 206 855 60 688 q 584 1022 353 1022 q 873 928 771 1022 q 979 661 976 834 l 776 661 l 776 666 q 723 799 776 751 q 578 848 670 848 q 359 727 445 848 q 274 421 274 607 q 335 229 274 295 q 510 163 396 163 q 660 210 600 163 q 738 343 720 257 "},"!":{"x_min":40,"x_max":416,"ha":458,"o":"m 136 307 l 205 999 l 416 999 l 240 307 l 136 307 m 40 0 l 73 201 l 281 201 l 249 0 l 40 0 "},"ç":{"x_min":29,"x_max":732,"ha":798,"o":"m 520 265 l 716 265 q 604 56 690 127 q 368 -24 518 -15 l 354 -61 l 359 -61 q 473 -90 434 -61 q 513 -176 513 -120 q 465 -288 513 -248 q 331 -329 418 -329 q 245 -319 295 -329 q 134 -291 195 -310 l 165 -209 q 251 -234 210 -226 q 329 -242 291 -242 q 376 -227 358 -242 q 394 -189 394 -212 q 369 -149 394 -160 q 259 -138 345 -139 l 299 -24 q 99 88 170 -2 q 29 328 29 180 q 135 641 29 522 q 416 761 242 761 q 645 689 564 761 q 732 482 727 617 l 537 482 q 504 570 535 539 q 413 602 473 602 q 277 521 330 602 q 225 313 225 440 q 262 185 225 230 q 371 141 300 141 q 465 173 426 141 q 520 265 504 206 "},"È":{"x_min":16,"x_max":852,"ha":848,"o":"m 16 0 l 195 999 l 852 999 l 821 822 l 371 822 l 329 610 l 752 610 l 717 432 l 300 432 l 256 172 l 735 172 l 703 0 l 16 0 m 553 1088 l 356 1339 l 527 1339 l 641 1088 l 553 1088 "},"X":{"x_min":-96,"x_max":833,"ha":760,"o":"m -96 0 l 271 511 l 48 999 l 265 999 l 399 689 l 603 999 l 833 999 l 488 511 l 725 0 l 506 0 l 357 336 l 131 0 l -96 0 "},"ô":{"x_min":22,"x_max":786,"ha":856,"o":"m 435 603 q 282 517 345 603 q 219 314 219 432 q 260 185 219 231 q 374 139 301 139 q 527 221 465 139 q 589 425 589 303 q 548 555 589 508 q 435 603 508 603 m 22 318 q 141 636 22 511 q 446 762 260 762 q 696 671 606 762 q 786 421 786 581 q 668 103 786 228 q 366 -22 550 -22 q 114 70 207 -22 q 22 318 22 162 m 687 827 l 599 827 l 510 968 l 355 827 l 259 827 l 440 1078 l 599 1078 l 687 827 "},"đ":{"x_min":24,"x_max":931,"ha":851,"o":"m 490 0 l 513 124 q 411 15 466 50 q 285 -20 356 -20 q 93 65 163 -20 q 24 298 24 151 q 122 627 24 494 q 365 761 220 761 q 501 725 450 761 q 579 612 552 690 l 616 815 l 395 815 l 412 925 l 636 925 l 650 999 l 842 999 l 829 925 l 931 925 l 911 815 l 810 815 l 667 0 l 490 0 m 405 593 q 274 510 328 593 q 220 311 220 428 q 254 185 220 228 q 357 143 289 143 q 492 223 441 143 q 543 433 543 303 q 508 552 543 511 q 405 593 473 593 "},"}":{"x_min":97,"x_max":589,"ha":694,"o":"m 97 1002 l 143 1002 q 263 993 217 1002 q 339 968 308 985 q 394 905 378 946 q 410 771 410 865 l 410 600 q 444 468 410 507 q 561 429 479 429 q 574 430 565 429 q 589 431 584 431 l 589 289 l 563 289 q 444 251 479 289 q 410 119 410 213 l 410 -50 q 394 -187 410 -147 q 339 -248 378 -226 q 261 -273 307 -265 q 148 -281 216 -281 q 123 -280 140 -281 q 97 -280 106 -280 l 97 -138 q 114 -138 103 -138 q 128 -139 124 -139 q 221 -113 197 -139 q 246 -4 246 -87 l 246 157 q 276 300 246 258 q 386 359 306 342 q 276 420 306 377 q 246 562 246 462 l 246 726 q 221 835 246 809 q 128 861 197 861 q 114 860 124 861 q 97 860 103 860 l 97 1002 "},"â":{"x_min":0,"x_max":686,"ha":772,"o":"m 462 355 q 341 326 418 341 q 195 213 195 299 q 218 160 195 180 q 280 140 241 140 q 389 176 343 140 q 446 270 436 213 l 462 355 m 426 73 q 328 4 377 25 q 221 -17 280 -17 q 59 41 119 -17 q 0 196 0 99 q 71 383 0 320 q 313 464 143 445 q 357 469 329 466 q 490 546 490 481 q 459 594 490 576 q 378 613 429 613 q 300 594 328 613 q 266 535 273 575 l 77 535 q 171 705 95 650 q 388 760 248 760 q 607 704 528 760 q 686 551 686 648 q 684 531 686 541 q 681 509 683 520 l 613 116 q 610 90 611 102 q 609 70 609 79 q 613 40 609 52 q 629 18 618 28 l 629 0 l 426 0 l 426 73 m 632 827 l 544 827 l 455 968 l 300 827 l 204 827 l 385 1078 l 544 1078 l 632 827 "},"ø":{"x_min":-8.140625,"x_max":808.375,"ha":856,"o":"m 268 175 q 317 145 295 153 q 366 137 339 137 q 523 219 460 137 q 587 420 587 302 q 583 458 587 437 q 573 509 580 480 l 268 175 m 534 568 q 487 594 509 586 q 439 603 464 603 q 282 519 346 603 q 219 319 219 436 q 221 282 219 302 q 229 234 223 261 l 534 568 m -8 -19 l 93 93 q 39 195 56 142 q 22 311 22 247 q 141 639 22 514 q 454 764 260 764 q 559 750 511 764 q 654 706 607 736 l 751 814 l 808 759 l 712 653 q 768 547 750 601 q 786 430 786 494 q 667 101 786 227 q 356 -24 549 -24 q 246 -9 294 -24 q 150 38 198 5 l 48 -74 l -8 -19 "},"Ä":{"x_min":-98,"x_max":824,"ha":900,"o":"m 308 368 l 571 368 l 517 790 l 308 368 m -98 0 l 424 999 l 665 999 l 824 0 l 616 0 l 593 194 l 222 194 l 123 0 l -98 0 m 612 1128 l 640 1295 l 792 1295 l 762 1128 l 612 1128 m 380 1128 l 409 1295 l 560 1295 l 530 1128 l 380 1128 "},"‰":{"x_min":49,"x_max":1744,"ha":1785,"o":"m 1386 232 q 1416 156 1386 187 q 1492 126 1447 126 q 1566 157 1535 126 q 1598 232 1598 188 q 1566 307 1598 276 q 1492 339 1535 339 q 1416 308 1447 339 q 1386 232 1386 277 m 1240 232 q 1312 411 1240 338 q 1491 485 1385 485 q 1669 410 1594 485 q 1744 232 1744 336 q 1669 54 1744 129 q 1491 -20 1594 -20 q 1312 53 1385 -20 q 1240 232 1240 126 m 796 232 q 826 156 796 187 q 901 126 856 126 q 976 157 945 126 q 1008 232 1008 188 q 976 307 1008 276 q 901 339 945 339 q 826 308 856 339 q 796 232 796 277 m 650 232 q 722 411 650 338 q 901 485 795 485 q 1079 410 1004 485 q 1154 232 1154 336 q 1079 54 1154 129 q 901 -20 1004 -20 q 722 53 795 -20 q 650 232 650 126 m 256 -20 l 835 979 l 943 979 l 364 -20 l 256 -20 m 195 725 q 225 650 195 681 q 300 620 255 620 q 375 651 344 620 q 407 725 407 683 q 375 801 407 769 q 300 833 344 833 q 225 801 256 833 q 195 725 195 770 m 49 727 q 121 906 49 833 q 299 979 194 979 q 478 905 403 979 q 553 727 553 831 q 478 549 553 624 q 299 474 403 474 q 121 547 194 474 q 49 727 49 621 "},"N":{"x_min":14,"x_max":999,"ha":1013,"o":"m 14 0 l 196 999 l 407 999 l 676 309 l 797 999 l 999 999 l 822 0 l 612 0 l 342 693 l 221 0 l 14 0 "},"—":{"x_min":-36,"x_max":1379,"ha":1389,"o":"m -9 443 l 1379 443 l 1352 296 l -36 296 l -9 443 "},"2":{"x_min":-4,"x_max":739,"ha":787,"o":"m 683 163 l 654 0 l -4 0 q 71 231 6 134 q 300 442 135 328 l 314 452 q 540 708 540 607 q 506 788 540 758 q 414 818 472 818 q 313 779 350 818 q 264 663 275 740 l 71 663 q 171 891 80 808 q 413 974 263 974 q 650 898 561 974 q 739 698 739 822 q 427 327 739 523 l 427 326 q 299 232 342 272 q 250 163 257 193 l 683 163 "},"ü":{"x_min":35,"x_max":792,"ha":835,"o":"m 792 741 l 660 0 l 482 0 l 502 117 q 382 12 441 44 q 251 -20 323 -20 q 93 34 152 -20 q 35 181 35 89 q 37 226 35 204 q 43 269 39 248 l 126 741 l 324 741 l 241 275 q 237 250 238 262 q 236 227 236 238 q 260 164 236 186 q 329 143 284 143 q 456 196 403 143 q 526 345 509 250 l 599 741 l 792 741 m 529 867 l 557 1034 l 709 1034 l 679 867 l 529 867 m 297 867 l 326 1034 l 477 1034 l 447 867 l 297 867 "},"":{"x_min":14,"x_max":807,"ha":814,"o":"m 440 0 l 613 999 l 807 999 l 634 0 l 440 0 m 14 0 l 118 602 l 17 602 l 40 741 l 143 741 l 156 821 q 234 968 173 917 q 389 1019 294 1019 q 431 1016 407 1019 q 490 1008 455 1013 l 463 857 q 430 863 444 861 q 405 866 416 866 q 367 849 380 866 q 345 784 353 832 l 337 741 l 442 741 l 419 602 l 314 602 l 208 0 l 14 0 "},"Ó":{"x_min":56,"x_max":1034,"ha":1091,"o":"m 580 846 q 354 725 441 846 q 267 416 267 605 q 330 220 267 289 q 508 151 393 151 q 632 180 576 151 q 726 265 687 209 q 796 416 770 329 q 822 588 822 503 q 760 780 822 714 q 580 846 698 846 m 56 415 q 101 668 56 548 q 230 874 147 788 q 395 987 301 948 q 595 1026 488 1026 q 918 904 803 1026 q 1034 565 1034 783 q 989 331 1034 446 q 867 131 945 216 q 700 11 795 51 q 494 -29 606 -29 q 171 89 287 -29 q 56 415 56 207 m 859 1339 l 597 1088 l 502 1088 l 662 1339 l 859 1339 "},"˜":{"x_min":212,"x_max":651,"ha":694,"o":"m 651 1050 q 592 927 629 966 q 497 888 555 888 q 466 890 480 888 q 439 896 451 892 l 398 909 q 370 916 379 914 q 355 918 361 918 q 314 901 331 918 q 290 856 297 884 l 212 856 q 270 980 232 939 q 365 1022 308 1022 q 392 1019 376 1022 q 427 1011 409 1016 l 469 998 q 489 994 479 996 q 504 992 499 992 q 546 1005 530 992 q 573 1050 562 1018 l 651 1050 "},"ˇ":{"x_min":237,"x_max":665,"ha":694,"o":"m 237 1078 l 324 1078 l 413 936 l 569 1078 l 665 1078 l 484 827 l 324 827 l 237 1078 "},"Ÿ":{"x_min":25,"x_max":846,"ha":777,"o":"m 204 0 l 271 383 l 25 999 l 247 999 l 397 591 l 624 999 l 846 999 l 474 377 l 412 0 l 204 0 m 551 1128 l 579 1295 l 731 1295 l 701 1128 l 551 1128 m 319 1128 l 348 1295 l 499 1295 l 469 1128 l 319 1128 "},"€":{"x_min":-61,"x_max":752,"ha":787,"o":"m 62 613 q 199 917 104 813 q 437 1022 295 1022 q 666 930 583 1022 q 752 678 749 839 l 551 677 l 551 706 q 520 824 551 785 q 431 864 490 864 q 332 806 370 864 q 269 613 295 748 l 511 613 l 478 538 l 256 538 q 252 507 255 532 q 246 461 248 482 l 443 461 l 411 386 l 240 386 q 238 357 239 371 q 238 318 238 342 q 267 180 238 226 q 357 135 297 135 q 456 184 416 135 q 510 323 496 233 l 713 323 q 586 68 685 163 q 351 -26 488 -26 q 119 72 199 -26 q 39 359 39 170 l 39 386 l -53 386 l -19 461 l 41 461 q 42 466 42 463 q 50 538 45 508 l -61 538 l -27 613 l 62 613 "},"ß":{"x_min":3,"x_max":770,"ha":823,"o":"m 3 0 l 123 685 q 233 935 154 858 q 455 1013 311 1013 q 682 941 595 1013 q 770 761 770 869 q 732 622 770 680 q 620 533 694 564 q 711 449 682 499 q 741 328 741 400 q 652 77 741 172 q 416 -17 564 -17 q 361 -11 390 -17 q 290 4 331 -6 l 318 163 q 359 151 340 155 q 396 147 378 147 q 504 200 463 147 q 546 341 546 254 q 505 443 546 409 q 377 485 465 478 l 402 620 q 415 619 409 619 q 434 619 421 619 q 541 652 504 619 q 578 747 578 685 q 545 828 578 799 q 455 858 513 858 q 364 819 396 858 q 316 691 332 781 l 196 0 l 3 0 "},"s":{"x_min":5,"x_max":658,"ha":717,"o":"m 5 252 l 189 252 q 227 158 191 192 q 324 125 262 125 q 406 145 379 125 q 434 204 434 165 q 327 288 434 253 l 320 290 q 119 391 170 339 q 69 530 69 443 q 146 698 69 638 q 362 758 223 758 q 579 693 502 758 q 658 512 656 628 l 474 512 q 435 588 467 561 q 351 615 404 615 q 279 596 305 615 q 253 547 253 578 q 382 462 253 502 l 386 460 q 573 366 524 418 q 622 227 622 315 q 540 45 622 113 q 321 -22 459 -22 q 88 48 171 -22 q 5 249 5 119 l 5 252 "},"?":{"x_min":90,"x_max":753,"ha":775,"o":"m 187 0 l 222 192 l 426 192 l 394 0 l 187 0 m 250 317 q 286 461 254 403 q 392 569 318 518 q 437 599 407 580 q 548 750 548 670 q 514 834 548 802 q 425 866 480 866 q 325 826 363 866 q 277 712 287 786 l 90 712 q 191 941 103 859 q 422 1023 278 1023 q 661 946 570 1023 q 753 748 753 869 q 729 639 753 691 q 663 551 706 588 q 563 482 625 518 q 488 436 502 446 q 443 388 455 413 q 428 317 430 362 l 250 317 "},"c":{"x_min":29,"x_max":732,"ha":798,"o":"m 520 265 l 716 265 q 599 53 691 128 q 364 -21 508 -21 q 116 70 203 -21 q 29 330 29 162 q 135 641 29 522 q 416 761 242 761 q 645 689 564 761 q 732 482 727 617 l 537 482 q 504 570 535 539 q 413 602 473 602 q 277 521 329 602 q 225 314 225 441 q 263 186 225 231 q 371 142 301 142 q 465 174 426 142 q 520 265 504 206 "},"¶":{"x_min":27,"x_max":668,"ha":694,"o":"m 668 1003 l 668 928 l 591 928 l 591 0 l 487 0 l 487 928 l 380 928 l 380 0 l 276 0 l 276 532 q 94 600 162 536 q 27 766 27 664 q 99 938 27 873 q 292 1003 172 1003 l 668 1003 "},"•":{"x_min":208,"x_max":609,"ha":819,"o":"m 208 516 q 266 657 208 599 q 409 716 325 716 q 550 657 491 716 q 609 516 609 598 q 549 374 609 433 q 407 315 490 315 q 266 373 324 315 q 208 516 208 432 "},"(":{"x_min":50,"x_max":535,"ha":514,"o":"m 190 -257 q 84 16 118 -112 q 50 269 50 145 q 123 619 50 453 q 376 997 197 786 l 535 997 q 313 589 384 787 q 243 176 243 390 q 264 -45 243 60 q 329 -257 285 -151 l 190 -257 "},"◊":{"x_min":4,"x_max":682,"ha":686,"o":"m 343 956 l 81 402 l 343 -157 l 604 402 l 343 956 m 343 1122 l 682 402 l 343 -323 l 4 402 l 343 1122 "},"­":{"x_min":17,"x_max":386,"ha":449,"o":"m 17 279 l 50 458 l 386 458 l 352 279 l 17 279 "},":":{"x_min":21,"x_max":363,"ha":427,"o":"m 115 528 l 151 729 l 363 729 l 326 528 l 115 528 m 21 0 l 56 203 l 268 203 l 231 0 l 21 0 "},"Û":{"x_min":78,"x_max":1003,"ha":1015,"o":"m 194 999 l 407 999 l 294 373 q 289 338 291 354 q 288 310 288 322 q 331 195 288 234 q 460 157 375 157 q 606 210 552 157 q 681 378 659 264 l 794 999 l 1003 999 l 890 363 q 744 71 855 168 q 442 -26 632 -26 q 177 62 276 -26 q 78 298 78 150 q 81 357 78 324 q 91 429 84 390 l 194 999 m 824 1088 l 736 1088 l 647 1229 l 492 1088 l 396 1088 l 577 1339 l 736 1339 l 824 1088 "},"V":{"x_min":37,"x_max":873,"ha":786,"o":"m 210 0 l 37 999 l 243 999 l 350 270 l 671 999 l 873 999 l 410 0 l 210 0 "}," ":{"x_min":0,"x_max":0,"ha":787},"@":{"x_min":61,"x_max":1329,"ha":1389,"o":"m 791 183 q 705 99 753 126 q 589 73 656 73 q 426 131 482 73 q 371 303 371 189 q 465 576 371 466 q 698 686 560 686 q 792 663 752 686 q 858 597 832 641 l 894 663 l 1015 663 l 915 257 q 911 242 913 250 q 910 230 910 234 q 926 194 910 206 q 975 182 943 182 q 1030 196 1001 182 q 1084 234 1059 209 q 1172 360 1142 288 q 1203 520 1203 433 q 1077 788 1203 683 q 752 893 951 893 q 574 869 657 893 q 425 801 492 846 q 248 607 310 724 q 186 353 186 491 q 326 20 186 145 q 701 -104 466 -104 q 915 -70 811 -104 q 1110 25 1020 -37 l 1166 -53 q 946 -170 1062 -131 q 703 -210 830 -210 q 464 -177 573 -210 q 270 -79 355 -144 q 113 109 165 2 q 61 352 61 216 q 96 568 61 465 q 201 755 132 671 q 442 940 301 877 q 756 1004 583 1004 q 971 973 871 1004 q 1147 885 1072 942 q 1283 723 1238 814 q 1329 517 1329 632 q 1284 310 1329 405 q 1156 149 1240 216 q 1053 90 1109 111 q 936 70 997 70 q 828 99 865 70 q 791 183 792 128 m 825 474 q 786 558 816 529 q 706 587 755 587 q 571 502 628 587 q 515 300 515 418 q 542 205 515 238 q 622 173 569 173 q 724 215 678 173 q 788 327 771 258 l 825 474 "},"¾":{"x_min":4,"x_max":1195,"ha":1223,"o":"m 829 204 l 1008 204 l 1057 443 l 829 204 m 967 0 l 989 119 l 724 119 l 740 223 l 1049 536 l 1195 536 l 1128 204 l 1192 204 l 1177 119 l 1111 119 l 1088 0 l 967 0 m 261 -28 l 850 985 l 962 985 l 370 -28 l 261 -28 m 5 587 l 123 587 l 123 566 q 145 512 123 532 q 206 492 168 492 q 282 517 253 492 q 311 582 311 542 q 287 636 311 616 q 219 656 263 656 q 211 655 216 656 q 204 654 207 654 l 221 735 q 311 755 280 735 q 343 815 343 776 q 322 863 343 846 q 263 881 301 881 q 205 860 226 881 q 178 798 184 840 l 57 798 q 122 922 68 879 q 267 966 176 966 q 409 927 357 966 q 462 821 462 888 q 432 742 462 775 q 349 693 403 709 q 412 647 391 676 q 434 579 434 618 q 373 454 434 501 q 209 407 312 407 q 58 448 113 407 q 4 563 4 490 q 4 577 4 573 q 5 587 4 582 "},"i":{"x_min":3,"x_max":372,"ha":370,"o":"m 147 826 l 177 999 l 372 999 l 342 826 l 147 826 m 3 0 l 132 741 l 326 741 l 197 0 l 3 0 "},"≤":{"x_min":175,"x_max":983,"ha":1157,"o":"m 175 133 l 983 133 l 983 -1 l 175 -1 l 175 133 m 981 842 l 981 700 l 416 521 l 981 343 l 981 202 l 175 463 l 175 580 l 981 842 "},"m":{"x_min":-1,"x_max":1148,"ha":1226,"o":"m -1 0 l 131 741 l 308 741 l 286 625 q 407 729 350 698 q 533 761 464 761 q 649 729 604 761 q 713 632 693 697 q 827 731 772 702 q 950 761 881 761 q 1095 706 1043 761 q 1148 555 1148 652 q 1146 521 1148 539 q 1140 481 1144 504 l 1051 0 l 860 0 l 948 492 q 950 507 949 502 q 951 517 951 513 q 929 577 951 557 q 866 598 908 598 q 758 541 805 598 q 695 386 712 484 l 623 0 l 428 0 l 515 492 q 517 506 517 499 q 518 524 518 513 q 498 578 518 559 q 440 598 477 598 q 330 544 376 598 q 265 393 283 490 l 190 0 l -1 0 "},"ž":{"x_min":-39,"x_max":676,"ha":701,"o":"m -39 0 l -13 153 l 392 582 l 38 582 l 65 741 l 676 741 l 648 587 l 243 164 l 622 164 l 592 0 l -39 0 m 241 1078 l 328 1078 l 417 936 l 573 1078 l 669 1078 l 488 827 l 328 827 l 241 1078 "},"á":{"x_min":0,"x_max":686,"ha":772,"o":"m 462 355 q 341 326 418 341 q 195 213 195 299 q 218 160 195 180 q 280 140 241 140 q 389 176 343 140 q 446 270 436 213 l 462 355 m 426 73 q 328 4 377 25 q 221 -17 280 -17 q 59 41 119 -17 q 0 196 0 99 q 71 383 0 320 q 313 464 143 445 q 357 469 329 466 q 490 546 490 481 q 459 594 490 576 q 378 613 429 613 q 300 594 328 613 q 266 535 273 575 l 77 535 q 171 705 95 650 q 388 760 248 760 q 607 704 528 760 q 686 551 686 648 q 684 531 686 541 q 681 509 683 520 l 613 116 q 610 90 611 102 q 609 70 609 79 q 613 40 609 52 q 629 18 618 28 l 629 0 l 426 0 l 426 73 m 659 1078 l 397 827 l 302 827 l 462 1078 l 659 1078 "},"×":{"x_min":187,"x_max":989,"ha":1157,"o":"m 281 816 l 587 510 l 893 816 l 989 721 l 683 414 l 989 108 l 893 14 l 587 320 l 281 14 l 187 108 l 493 414 l 187 721 l 281 816 "},"İ":{"x_min":18,"x_max":449,"ha":429,"o":"m 18 0 l 201 999 l 411 999 l 229 0 l 18 0 m 257 1125 l 287 1299 l 449 1299 l 417 1125 l 257 1125 "},"K":{"x_min":18,"x_max":961,"ha":871,"o":"m 18 0 l 193 999 l 399 999 l 331 598 l 709 999 l 961 999 l 540 572 l 832 0 l 606 0 l 395 427 l 281 312 l 226 0 l 18 0 "},"7":{"x_min":90,"x_max":784,"ha":787,"o":"m 156 0 q 268 370 168 172 q 550 782 367 568 l 90 782 l 120 943 l 784 943 l 756 797 q 480 388 577 583 q 359 0 383 192 l 156 0 "},"¨":{"x_min":226,"x_max":638,"ha":694,"o":"m 458 867 l 486 1034 l 638 1034 l 608 867 l 458 867 m 226 867 l 255 1034 l 406 1034 l 376 867 l 226 867 "},"Y":{"x_min":25,"x_max":846,"ha":777,"o":"m 204 0 l 271 383 l 25 999 l 247 999 l 397 591 l 624 999 l 846 999 l 474 377 l 412 0 l 204 0 "},"E":{"x_min":16,"x_max":852,"ha":848,"o":"m 16 0 l 195 999 l 852 999 l 821 822 l 371 822 l 329 610 l 752 610 l 717 432 l 300 432 l 256 172 l 735 172 l 703 0 l 16 0 "},"Ô":{"x_min":56,"x_max":1034,"ha":1091,"o":"m 580 846 q 354 725 441 846 q 267 416 267 605 q 330 220 267 289 q 508 151 393 151 q 632 180 576 151 q 726 265 687 209 q 796 416 770 329 q 822 588 822 503 q 760 780 822 714 q 580 846 698 846 m 56 415 q 101 668 56 548 q 230 874 147 788 q 395 987 301 948 q 595 1026 488 1026 q 918 904 803 1026 q 1034 565 1034 783 q 989 331 1034 446 q 867 131 945 216 q 700 11 795 51 q 494 -29 606 -29 q 171 89 287 -29 q 56 415 56 207 m 832 1088 l 744 1088 l 655 1229 l 500 1088 l 404 1088 l 585 1339 l 744 1339 l 832 1088 "},"Ï":{"x_min":18,"x_max":557,"ha":429,"o":"m 18 0 l 201 999 l 411 999 l 229 0 l 18 0 m 377 1128 l 405 1295 l 557 1295 l 527 1128 l 377 1128 m 145 1128 l 174 1295 l 325 1295 l 295 1128 l 145 1128 "},"‹":{"x_min":12,"x_max":312,"ha":328,"o":"m 200 93 l 12 307 l 42 451 l 312 646 l 277 478 l 117 365 l 230 237 l 200 93 "},"±":{"x_min":172,"x_max":985,"ha":1157,"o":"m 172 134 l 985 134 l 985 -1 l 172 -1 l 172 134 m 510 829 l 647 829 l 647 608 l 985 608 l 985 473 l 647 473 l 647 253 l 510 253 l 510 473 l 172 473 l 172 608 l 510 608 l 510 829 "},"ì":{"x_min":3,"x_max":349,"ha":370,"o":"m 3 0 l 132 741 l 326 741 l 197 0 l 3 0 m 261 827 l 64 1078 l 235 1078 l 349 827 l 261 827 "},"|":{"x_min":278,"x_max":418,"ha":694,"o":"m 278 1061 l 418 1061 l 418 -328 l 278 -328 l 278 1061 "},"§":{"x_min":9,"x_max":635,"ha":694,"o":"m 400 290 q 450 318 433 301 q 467 362 467 336 q 337 512 467 412 q 269 565 294 545 q 215 539 234 557 q 197 494 197 521 q 213 446 197 469 q 272 388 229 422 l 400 290 m 9 74 l 165 73 q 190 6 165 30 q 262 -17 216 -17 q 333 4 306 -17 q 361 58 361 25 q 346 102 361 80 q 296 151 331 124 l 145 271 q 58 367 84 321 q 33 474 33 414 q 75 581 33 536 q 192 645 117 626 q 150 713 164 679 q 137 785 137 747 q 206 944 137 882 q 384 1007 275 1007 q 566 952 503 1007 q 630 795 630 897 l 630 776 l 475 776 q 452 848 475 825 q 382 872 429 872 q 319 852 343 872 q 296 801 296 832 q 320 749 296 778 q 397 680 344 720 l 507 595 q 601 492 567 549 q 635 380 635 435 q 589 265 635 312 q 469 210 544 219 q 511 145 498 179 q 525 69 525 111 q 450 -92 525 -27 q 260 -158 375 -158 q 73 -102 138 -158 q 9 58 9 -46 l 9 74 "},"q":{"x_min":25,"x_max":799,"ha":846,"o":"m 412 594 q 275 510 329 594 q 222 299 222 427 q 257 183 222 224 q 359 142 293 142 q 494 222 443 142 q 545 435 545 303 q 511 553 545 512 q 412 594 477 594 m 418 -296 l 491 95 q 401 7 452 36 q 281 -21 349 -21 q 93 64 161 -21 q 25 299 25 149 q 124 630 25 499 q 373 762 223 762 q 513 722 462 762 q 589 595 564 683 l 616 741 l 799 741 l 615 -296 l 418 -296 "},"b":{"x_min":3,"x_max":778,"ha":846,"o":"m 444 605 q 307 524 361 605 q 254 319 254 443 q 288 195 254 237 q 389 153 322 153 q 525 236 471 153 q 579 442 579 320 q 543 562 579 519 q 444 605 507 605 m 3 0 l 177 999 l 375 999 l 314 652 q 403 734 354 708 q 518 760 452 760 q 708 676 638 760 q 778 449 778 592 q 675 112 778 247 q 422 -22 573 -22 q 288 17 339 -22 q 209 140 236 57 l 187 0 l 3 0 "},"®":{"x_min":75,"x_max":1083,"ha":1157,"o":"m 505 701 l 505 539 l 572 539 q 660 557 632 539 q 688 617 688 576 q 658 680 688 660 q 565 701 628 701 l 505 701 m 369 787 l 588 787 q 768 746 708 787 q 828 626 828 706 q 795 531 828 570 q 705 478 763 492 l 830 228 l 679 228 l 572 457 l 505 457 l 505 228 l 369 228 l 369 787 m 579 918 q 419 887 492 918 q 286 799 345 857 q 191 659 224 737 q 158 498 158 581 q 189 339 158 414 q 279 205 220 263 q 416 110 339 143 q 577 78 494 78 q 735 109 659 78 q 875 201 812 141 q 967 333 934 257 q 1000 490 1000 409 q 969 655 1000 580 q 880 791 939 731 q 742 886 818 854 q 579 918 666 918 m 577 1003 q 774 964 682 1003 q 939 851 867 925 q 1046 689 1009 780 q 1083 496 1083 598 q 1045 301 1083 393 q 934 140 1007 210 q 769 30 861 68 q 577 -7 676 -7 q 384 32 476 -7 q 219 145 292 71 q 111 307 148 216 q 75 496 75 397 q 93 631 75 566 q 148 759 111 697 q 329 938 216 874 q 577 1003 441 1003 "},"L":{"x_min":18,"x_max":722,"ha":764,"o":"m 18 0 l 194 999 l 403 999 l 259 176 l 722 176 l 690 0 l 18 0 "}," ":{"x_min":0,"x_max":0,"ha":395},"∑":{"x_min":28,"x_max":968,"ha":997,"o":"m 45 999 l 932 999 l 932 819 l 336 819 l 757 381 l 335 -87 l 968 -87 l 968 -267 l 28 -267 l 28 -150 l 501 373 l 45 841 l 45 999 "},"À":{"x_min":-98,"x_max":824,"ha":900,"o":"m 308 368 l 571 368 l 517 790 l 308 368 m -98 0 l 424 999 l 665 999 l 824 0 l 616 0 l 593 194 l 222 194 l 123 0 l -98 0 m 578 1088 l 381 1339 l 552 1339 l 666 1088 l 578 1088 "},"+":{"x_min":172,"x_max":985,"ha":1157,"o":"m 510 828 l 647 828 l 647 482 l 985 482 l 985 347 l 647 347 l 647 0 l 510 0 l 510 347 l 172 347 l 172 482 l 510 482 l 510 828 "},"½":{"x_min":81,"x_max":1193,"ha":1225,"o":"m 1158 92 l 1140 0 l 725 0 q 773 130 732 75 q 918 249 813 184 l 928 255 q 1068 397 1068 341 q 1046 442 1068 425 q 988 459 1025 459 q 924 437 948 459 q 894 371 901 415 l 772 371 q 836 499 778 452 q 988 546 894 546 q 1137 503 1081 546 q 1193 392 1193 461 q 1159 296 1193 337 q 996 183 1125 255 q 915 130 942 152 q 884 92 889 108 l 1158 92 m 261 -28 l 850 985 l 962 985 l 370 -28 l 261 -28 m 158 422 l 234 818 q 157 803 196 808 q 81 799 118 799 l 95 874 q 216 902 171 881 q 286 965 261 924 l 388 965 l 282 422 l 158 422 "},"Ë":{"x_min":16,"x_max":852,"ha":848,"o":"m 16 0 l 195 999 l 852 999 l 821 822 l 371 822 l 329 610 l 752 610 l 717 432 l 300 432 l 256 172 l 735 172 l 703 0 l 16 0 m 587 1128 l 615 1295 l 767 1295 l 737 1128 l 587 1128 m 355 1128 l 384 1295 l 535 1295 l 505 1128 l 355 1128 "},"'":{"x_min":54,"x_max":185,"ha":239,"o":"m 54 975 l 185 975 l 185 596 l 54 596 l 54 975 "},"Š":{"x_min":22,"x_max":820,"ha":865,"o":"m 22 317 l 225 317 l 225 307 q 271 191 225 231 q 404 151 317 151 q 524 184 482 151 q 566 282 566 218 q 538 348 566 320 q 410 419 510 375 q 162 565 217 504 q 108 722 108 627 q 201 942 108 860 q 455 1025 295 1025 q 723 945 627 1025 q 820 725 820 866 l 820 712 l 623 712 q 578 814 621 778 q 455 851 535 851 q 351 822 388 851 q 315 744 315 794 q 455 614 315 673 q 492 598 479 604 q 709 464 650 531 q 769 295 769 397 q 669 58 769 144 q 395 -28 569 -28 q 122 59 223 -28 q 22 297 22 147 l 22 317 m 375 1339 l 462 1339 l 551 1197 l 707 1339 l 803 1339 l 622 1088 l 462 1088 l 375 1339 "},"˛":{"x_min":104,"x_max":345,"ha":694,"o":"m 299 0 q 234 -69 256 -34 q 212 -138 212 -105 q 226 -179 212 -165 q 268 -194 241 -194 l 345 -194 l 324 -311 l 264 -311 q 144 -279 185 -311 q 104 -185 104 -247 q 134 -93 104 -137 q 232 0 164 -49 l 299 0 "},"ð":{"x_min":22,"x_max":794,"ha":859,"o":"m 574 662 q 525 747 554 708 q 457 820 497 786 l 267 742 l 231 816 l 377 877 q 300 916 329 903 q 244 936 270 929 l 297 1031 q 417 992 360 1015 q 530 936 475 968 l 733 1024 l 771 947 l 612 879 q 749 689 704 798 q 794 444 794 581 q 678 105 794 232 q 367 -22 562 -22 q 114 64 207 -22 q 22 298 22 150 q 135 591 22 470 q 407 713 248 713 q 497 700 456 713 q 574 662 538 688 m 435 566 q 281 487 344 566 q 219 299 219 409 q 259 181 219 223 q 374 139 299 139 q 527 215 465 139 q 589 403 589 291 q 548 522 589 479 q 435 566 508 566 "},"ş":{"x_min":5,"x_max":658,"ha":717,"o":"m 5 252 l 189 252 q 228 157 192 190 q 328 125 263 125 q 407 145 380 125 q 434 204 434 165 q 325 289 434 254 l 320 290 q 119 392 170 339 q 69 530 69 444 q 146 698 69 638 q 362 758 223 758 q 579 693 502 758 q 658 512 656 629 l 474 512 q 436 588 467 561 q 352 615 404 615 q 279 596 305 615 q 253 547 253 578 q 384 461 253 501 l 386 460 q 572 367 522 418 q 622 226 622 315 q 541 43 622 110 q 320 -24 460 -24 l 312 -24 l 300 -61 l 306 -61 q 419 -90 380 -61 q 459 -176 459 -120 q 411 -288 459 -248 q 278 -329 364 -329 q 191 -319 241 -329 q 81 -291 142 -310 l 112 -209 q 197 -234 157 -226 q 276 -242 237 -242 q 322 -227 305 -242 q 340 -189 340 -212 q 315 -149 340 -160 q 206 -138 291 -139 l 244 -21 q 66 69 127 1 q 5 244 5 137 l 5 252 "},"ı":{"x_min":3,"x_max":326,"ha":370,"o":"m 3 0 l 132 741 l 326 741 l 197 0 l 3 0 "},"Ć":{"x_min":60,"x_max":979,"ha":1023,"o":"m 738 343 l 948 343 q 796 73 918 170 q 488 -24 674 -24 q 173 95 287 -24 q 60 427 60 215 q 206 855 60 688 q 584 1022 353 1022 q 873 928 771 1022 q 979 661 976 834 l 776 661 l 776 666 q 723 799 776 751 q 578 848 670 848 q 359 727 445 848 q 274 421 274 607 q 335 229 274 295 q 510 163 396 163 q 660 210 600 163 q 738 343 720 257 m 846 1339 l 584 1088 l 489 1088 l 649 1339 l 846 1339 "},"ä":{"x_min":0,"x_max":686,"ha":772,"o":"m 462 355 q 341 326 418 341 q 195 213 195 299 q 218 160 195 180 q 280 140 241 140 q 389 176 343 140 q 446 270 436 213 l 462 355 m 426 73 q 328 4 377 25 q 221 -17 280 -17 q 59 41 119 -17 q 0 196 0 99 q 71 383 0 320 q 313 464 143 445 q 357 469 329 466 q 490 546 490 481 q 459 594 490 576 q 378 613 429 613 q 300 594 328 613 q 266 535 273 575 l 77 535 q 171 705 95 650 q 388 760 248 760 q 607 704 528 760 q 686 551 686 648 q 684 531 686 541 q 681 509 683 520 l 613 116 q 610 90 611 102 q 609 70 609 79 q 613 40 609 52 q 629 18 618 28 l 629 0 l 426 0 l 426 73 m 478 867 l 506 1034 l 658 1034 l 628 867 l 478 867 m 246 867 l 275 1034 l 426 1034 l 396 867 l 246 867 "},"¹":{"x_min":85,"x_max":406,"ha":519,"o":"m 167 384 l 245 808 q 161 792 201 797 q 85 787 121 787 l 99 868 q 226 898 178 875 q 300 966 273 922 l 406 966 l 294 384 l 167 384 "},"£":{"x_min":61,"x_max":779,"ha":787,"o":"m 85 -24 l 61 117 q 169 225 134 167 q 204 353 204 282 q 202 381 204 364 q 199 420 201 397 l 69 420 l 85 520 l 180 520 q 168 596 172 559 q 165 667 165 632 q 249 896 165 811 q 477 982 334 982 q 700 917 622 982 q 779 733 779 852 q 777 695 779 713 q 773 659 776 677 l 597 659 q 602 695 600 680 q 604 722 604 711 q 573 807 604 776 q 488 838 542 838 q 389 793 423 838 q 356 662 356 748 q 359 597 356 632 q 370 520 362 562 l 582 520 l 569 420 l 377 419 q 378 410 378 415 q 379 395 379 405 q 349 272 379 330 q 256 152 319 213 q 320 168 291 163 q 374 174 349 174 q 471 157 406 174 q 573 140 536 140 q 646 155 611 140 q 711 200 681 170 l 673 22 q 605 -12 638 -1 q 537 -24 573 -24 q 402 6 495 -24 q 245 36 309 36 q 163 21 203 36 q 85 -24 123 6 "},"W":{"x_min":93,"x_max":1267,"ha":1198,"o":"m 166 0 l 93 999 l 287 999 l 316 335 l 575 999 l 780 999 l 803 352 l 1062 999 l 1267 999 l 837 0 l 640 0 l 628 722 l 347 0 l 166 0 "},"Ğ":{"x_min":54,"x_max":995.71875,"ha":1080,"o":"m 765 0 l 764 108 q 632 6 709 41 q 458 -28 555 -28 q 165 93 277 -28 q 54 410 54 214 q 92 641 54 529 q 202 842 131 754 q 370 974 273 930 q 588 1019 467 1019 q 884 922 776 1019 q 993 657 991 826 l 788 657 q 731 793 782 746 q 587 841 680 841 q 457 810 514 841 q 360 720 401 780 q 295 575 319 657 q 272 410 272 494 q 332 215 272 285 q 498 146 392 146 q 672 203 598 146 q 764 352 745 260 l 514 352 l 543 515 l 995 515 l 904 0 l 765 0 m 486 1316 l 568 1316 l 568 1307 q 593 1237 568 1260 q 670 1215 618 1215 q 764 1240 726 1215 q 822 1316 802 1265 l 908 1316 q 817 1161 880 1213 q 658 1109 754 1109 q 528 1152 572 1109 q 485 1284 485 1196 q 485 1303 485 1297 q 486 1316 485 1309 "},"v":{"x_min":25,"x_max":704,"ha":665,"o":"m 128 0 l 25 741 l 218 741 l 269 230 l 501 741 l 704 741 l 340 0 l 128 0 "},">":{"x_min":179,"x_max":978,"ha":1157,"o":"m 179 809 l 978 481 l 978 346 l 179 18 l 179 166 l 786 413 l 179 660 l 179 809 "},"û":{"x_min":35,"x_max":792,"ha":835,"o":"m 792 741 l 660 0 l 482 0 l 502 117 q 382 12 441 44 q 251 -20 323 -20 q 93 34 152 -20 q 35 181 35 89 q 37 226 35 204 q 43 269 39 248 l 126 741 l 324 741 l 241 275 q 237 250 238 262 q 236 227 236 238 q 260 164 236 186 q 329 143 284 143 q 456 196 403 143 q 526 345 509 250 l 599 741 l 792 741 m 683 827 l 595 827 l 506 968 l 351 827 l 255 827 l 436 1078 l 595 1078 l 683 827 "},"Ð":{"x_min":-9.5,"x_max":971,"ha":1028,"o":"m 21 0 l 104 472 l -9 472 l 12 602 l 128 602 l 198 999 l 555 999 q 861 891 752 999 q 971 590 971 783 q 926 338 971 456 q 802 139 882 219 q 630 32 728 64 q 364 0 532 0 l 21 0 m 261 176 l 428 176 q 580 208 518 176 q 685 309 643 241 q 738 439 719 367 q 757 583 757 511 q 704 755 757 697 q 551 814 652 814 l 375 814 l 337 602 l 550 602 l 526 472 l 314 472 l 261 176 "},"r":{"x_min":3,"x_max":542,"ha":522,"o":"m 3 0 l 135 741 l 311 741 l 282 596 q 380 722 327 683 q 511 761 434 761 q 529 760 523 761 q 542 759 536 760 l 505 554 q 465 561 480 559 q 438 564 449 564 q 324 511 368 564 q 259 350 280 459 l 197 0 l 3 0 "},"Č":{"x_min":60,"x_max":979,"ha":1023,"o":"m 738 343 l 948 343 q 796 73 918 170 q 488 -24 674 -24 q 173 95 287 -24 q 60 427 60 215 q 206 855 60 688 q 584 1022 353 1022 q 873 928 771 1022 q 979 661 976 834 l 776 661 l 776 666 q 723 799 776 751 q 578 848 670 848 q 359 727 445 848 q 274 421 274 607 q 335 229 274 295 q 510 163 396 163 q 660 210 600 163 q 738 343 720 257 m 444 1339 l 531 1339 l 620 1197 l 776 1339 l 872 1339 l 691 1088 l 531 1088 l 444 1339 "},"x":{"x_min":-71,"x_max":672,"ha":660,"o":"m -71 0 l 195 368 l 10 741 l 218 741 l 312 519 l 452 741 l 672 741 l 405 368 l 596 0 l 384 0 l 292 212 l 149 0 l -71 0 "},"è":{"x_min":26,"x_max":733,"ha":807,"o":"m 236 443 l 536 443 q 537 455 536 447 q 538 468 538 464 q 505 571 538 536 q 408 607 472 607 q 296 564 341 607 q 236 443 252 521 m 490 212 l 702 212 q 577 40 672 102 q 346 -22 482 -22 q 110 70 194 -22 q 26 327 26 162 q 132 638 26 517 q 408 760 239 760 q 646 673 560 760 q 733 434 733 586 q 730 387 733 413 q 720 306 728 360 l 219 306 l 219 301 q 255 180 219 222 q 357 138 291 138 q 435 156 403 138 q 490 212 468 174 m 461 827 l 264 1078 l 435 1078 l 549 827 l 461 827 "},"Ø":{"x_min":35.96875,"x_max":1058.734375,"ha":1091,"o":"m 288 273 l 765 785 q 687 835 733 818 q 581 852 641 852 q 349 729 437 852 q 262 405 262 606 q 268 337 262 369 q 288 273 274 305 m 35 5 l 141 125 q 77 249 98 178 q 57 416 57 320 q 210 853 57 680 q 597 1026 363 1026 q 758 1003 687 1026 q 889 932 830 980 l 995 1049 l 1058 987 l 951 867 q 1014 735 993 808 q 1035 577 1035 662 q 991 334 1035 450 q 867 130 948 217 q 701 11 795 51 q 494 -29 606 -29 q 329 -7 401 -29 q 202 58 256 14 l 98 -56 l 35 5 m 807 721 l 331 208 q 406 160 362 176 q 507 145 450 145 q 739 272 648 145 q 830 597 830 400 q 824 664 830 633 q 807 721 819 694 "},"÷":{"x_min":171,"x_max":986,"ha":1157,"o":"m 578 250 q 650 219 620 250 q 681 146 681 189 q 650 75 681 105 q 578 46 620 46 q 506 75 536 46 q 476 146 476 104 q 506 219 476 189 q 578 250 536 250 m 171 482 l 986 482 l 986 347 l 171 347 l 171 482 m 578 783 q 650 753 620 783 q 681 681 681 723 q 650 608 681 638 q 578 579 620 579 q 506 608 536 579 q 476 681 476 638 q 506 753 476 723 q 578 783 536 783 "},"h":{"x_min":3,"x_max":758,"ha":839,"o":"m 310 652 q 424 739 372 715 q 544 764 476 764 q 699 708 641 764 q 758 561 758 652 q 755 522 758 543 q 748 476 753 501 l 663 0 l 467 0 l 550 469 q 554 496 552 484 q 555 517 555 509 q 532 579 555 558 q 463 601 509 601 q 335 547 389 601 q 265 399 282 493 l 196 0 l 3 0 l 177 999 l 372 999 l 310 652 "},".":{"x_min":4,"x_max":253,"ha":395,"o":"m 4 0 l 41 203 l 253 203 l 216 0 l 4 0 "},"f":{"x_min":14,"x_max":491,"ha":428,"o":"m 14 0 l 118 602 l 17 602 l 40 741 l 143 741 l 157 821 q 234 968 174 917 q 390 1019 294 1019 q 432 1016 408 1019 q 491 1008 456 1013 l 464 857 q 430 863 444 861 q 406 866 417 866 q 367 849 381 866 q 346 784 354 832 l 338 741 l 443 741 l 419 602 l 314 602 l 208 0 l 14 0 "},"“":{"x_min":112,"x_max":637,"ha":624,"o":"m 112 649 l 143 817 q 223 967 161 911 q 375 1025 286 1022 l 364 961 q 276 921 309 953 q 234 834 244 888 l 340 834 l 304 649 l 112 649 m 373 649 l 404 817 q 484 967 422 911 q 637 1025 547 1022 l 626 961 q 539 921 571 953 q 496 834 507 890 l 602 834 l 566 649 l 373 649 "},"A":{"x_min":-98,"x_max":824,"ha":900,"o":"m 308 368 l 571 368 l 517 790 l 308 368 m -98 0 l 424 999 l 665 999 l 824 0 l 616 0 l 593 194 l 222 194 l 123 0 l -98 0 "},"O":{"x_min":56,"x_max":1034,"ha":1091,"o":"m 580 846 q 354 725 441 846 q 267 416 267 605 q 330 220 267 289 q 508 151 393 151 q 632 180 576 151 q 726 265 687 209 q 796 416 770 329 q 822 588 822 503 q 760 780 822 714 q 580 846 698 846 m 56 415 q 101 668 56 548 q 230 874 147 788 q 395 987 301 948 q 595 1026 488 1026 q 918 904 803 1026 q 1034 565 1034 783 q 989 331 1034 446 q 867 131 945 216 q 700 11 795 51 q 494 -29 606 -29 q 171 89 287 -29 q 56 415 56 207 "},"π":{"x_min":-24,"x_max":918,"ha":895,"o":"m 918 741 l 891 589 l 772 589 l 667 0 l 473 0 l 576 589 l 414 589 l 312 0 l 117 0 l 221 589 l 204 589 q 147 567 166 589 q 120 500 127 546 l -24 500 q 59 688 -4 635 q 270 741 123 741 l 918 741 "},"‘":{"x_min":113,"x_max":377,"ha":361,"o":"m 113 649 l 144 817 q 224 967 162 911 q 377 1025 287 1022 l 366 961 q 277 921 310 953 q 235 834 245 888 l 341 834 l 305 649 l 113 649 "},"3":{"x_min":7,"x_max":735,"ha":787,"o":"m 9 295 l 197 295 q 196 277 196 286 q 196 257 196 268 q 232 161 196 197 q 327 125 268 125 q 448 169 402 125 q 494 284 494 214 q 455 381 494 346 q 347 416 416 416 q 336 415 344 416 q 324 414 329 414 l 350 558 q 494 595 443 558 q 545 702 545 633 q 511 789 545 758 q 419 821 478 821 q 326 784 360 821 q 282 673 292 748 l 90 673 q 193 896 107 819 q 426 973 280 973 q 652 903 570 973 q 735 714 735 833 q 688 571 735 631 q 555 483 642 511 q 657 401 623 452 q 691 279 691 350 q 593 56 691 140 q 334 -28 496 -28 q 93 46 180 -28 q 7 252 7 120 q 7 278 7 269 q 9 295 7 286 "},"9":{"x_min":39,"x_max":734,"ha":787,"o":"m 394 482 q 501 533 460 482 q 543 670 543 585 q 508 782 543 742 q 410 822 473 822 q 303 768 344 822 q 262 629 262 714 q 296 520 262 559 q 394 482 331 482 m 219 235 q 248 150 221 179 q 326 122 275 122 q 445 188 398 122 q 503 376 491 254 q 431 337 470 350 q 346 325 392 325 q 144 405 221 325 q 67 613 67 485 q 163 874 67 774 q 417 974 260 974 q 653 878 573 974 q 734 594 734 782 q 623 140 734 309 q 324 -28 512 -28 q 113 39 186 -28 q 39 235 39 107 l 219 235 "},"l":{"x_min":3,"x_max":371,"ha":375,"o":"m 3 0 l 176 999 l 371 999 l 197 0 l 3 0 "},"":{"x_min":14,"x_max":812,"ha":814,"o":"m 587 826 l 617 999 l 812 999 l 781 826 l 587 826 m 438 0 l 569 741 l 763 741 l 633 0 l 438 0 m 14 0 l 118 602 l 17 602 l 40 741 l 143 741 l 157 822 q 234 968 174 917 q 390 1019 294 1019 q 432 1016 408 1019 q 491 1008 456 1013 l 464 858 q 430 864 444 862 q 406 866 417 866 q 367 849 381 866 q 346 785 354 832 l 338 741 l 443 741 l 419 602 l 314 602 l 208 0 l 14 0 "},"4":{"x_min":-5,"x_max":742,"ha":787,"o":"m 161 365 l 444 365 l 522 789 l 161 365 m 381 0 l 416 212 l -5 212 l 21 398 l 510 958 l 742 958 l 634 365 l 735 365 l 712 212 l 608 212 l 571 0 l 381 0 "},"Ü":{"x_min":78,"x_max":1003,"ha":1015,"o":"m 194 999 l 407 999 l 294 373 q 289 338 291 354 q 288 310 288 322 q 331 195 288 234 q 460 157 375 157 q 606 210 552 157 q 681 378 659 264 l 794 999 l 1003 999 l 890 363 q 744 71 855 168 q 442 -26 632 -26 q 177 62 276 -26 q 78 298 78 150 q 81 357 78 324 q 91 429 84 390 l 194 999 m 670 1128 l 698 1295 l 850 1295 l 820 1128 l 670 1128 m 438 1128 l 467 1295 l 618 1295 l 588 1128 l 438 1128 "},"à":{"x_min":0,"x_max":686,"ha":772,"o":"m 462 355 q 341 326 418 341 q 195 213 195 299 q 218 160 195 180 q 280 140 241 140 q 389 176 343 140 q 446 270 436 213 l 462 355 m 426 73 q 328 4 377 25 q 221 -17 280 -17 q 59 41 119 -17 q 0 196 0 99 q 71 383 0 320 q 313 464 143 445 q 357 469 329 466 q 490 546 490 481 q 459 594 490 576 q 378 613 429 613 q 300 594 328 613 q 266 535 273 575 l 77 535 q 171 705 95 650 q 388 760 248 760 q 607 704 528 760 q 686 551 686 648 q 684 531 686 541 q 681 509 683 520 l 613 116 q 610 90 611 102 q 609 70 609 79 q 613 40 609 52 q 629 18 618 28 l 629 0 l 426 0 l 426 73 m 444 827 l 247 1078 l 418 1078 l 532 827 l 444 827 "},"ó":{"x_min":22,"x_max":786,"ha":856,"o":"m 435 603 q 282 517 345 603 q 219 314 219 432 q 260 185 219 231 q 374 139 301 139 q 527 221 465 139 q 589 425 589 303 q 548 555 589 508 q 435 603 508 603 m 22 318 q 141 636 22 511 q 446 762 260 762 q 696 671 606 762 q 786 421 786 581 q 668 103 786 228 q 366 -22 550 -22 q 114 70 207 -22 q 22 318 22 162 m 714 1078 l 452 827 l 357 827 l 517 1078 l 714 1078 "}}}
